<?xml version="1.0" encoding="UTF-8"?>
<svg xmlns="http://www.w3.org/2000/svg" xmlns:xlink="http://www.w3.org/1999/xlink" width="33px" height="40px" viewBox="0 0 33 40" version="1.1">
<g id="surface1">
<path style=" stroke:none;fill-rule:nonzero;fill:rgb(100%,12.941177%,8.627451%);fill-opacity:1;" d="M 4.1875 0 C 1.878906 0 0 1.855469 0 4.132812 L 0 35.882812 C 0 38.160156 1.878906 40.015625 4.1875 40.015625 L 28.792969 40.015625 C 31.101562 40.015625 32.980469 38.160156 32.980469 35.882812 L 32.980469 9.777344 C 32.980469 9.777344 33.046875 9.011719 32.710938 8.269531 C 32.394531 7.570312 31.878906 7.085938 31.878906 7.085938 L 25.773438 1.171875 C 25.761719 1.164062 25.242188 0.671875 24.46875 0.34375 C 23.558594 -0.0390625 22.621094 0 22.621094 0 L 22.636719 0 Z M 4.1875 0 "/>
<path style=" stroke:none;fill-rule:nonzero;fill:rgb(96.078432%,96.078432%,96.078432%);fill-opacity:1;" d="M 4.1875 1.359375 L 22.636719 1.359375 C 22.648438 1.359375 23.386719 1.363281 23.925781 1.59375 C 24.445312 1.8125 24.8125 2.144531 24.816406 2.148438 C 24.816406 2.148438 24.820312 2.152344 24.820312 2.152344 L 30.910156 8.042969 C 30.910156 8.042969 31.273438 8.425781 31.453125 8.820312 C 31.597656 9.136719 31.605469 9.71875 31.605469 9.71875 L 31.605469 35.882812 C 31.605469 37.429688 30.363281 38.65625 28.792969 38.65625 L 4.1875 38.65625 C 2.617188 38.65625 1.375 37.429688 1.375 35.882812 L 1.375 4.132812 C 1.375 2.585938 2.617188 1.359375 4.1875 1.359375 Z M 4.1875 1.359375 "/>
<path style=" stroke:none;fill-rule:nonzero;fill:rgb(100%,12.941177%,8.627451%);fill-opacity:1;" d="M 8.234375 23.824219 C 7.289062 22.890625 8.3125 21.605469 11.09375 20.242188 L 12.84375 19.386719 L 13.523438 17.914062 C 13.898438 17.105469 14.457031 15.785156 14.765625 14.980469 L 15.328125 13.515625 L 14.941406 12.433594 C 14.464844 11.101562 14.296875 9.101562 14.597656 8.382812 C 15.007812 7.410156 16.347656 7.507812 16.878906 8.554688 C 17.292969 9.367188 17.25 10.847656 16.757812 12.710938 L 16.355469 14.238281 L 16.710938 14.832031 C 16.90625 15.15625 17.476562 15.933594 17.976562 16.554688 L 18.917969 17.710938 L 20.089844 17.558594 C 23.8125 17.078125 25.089844 17.894531 25.089844 19.0625 C 25.089844 20.539062 22.164062 20.660156 19.710938 18.957031 C 19.15625 18.574219 18.777344 18.195312 18.777344 18.195312 C 18.777344 18.195312 17.238281 18.503906 16.480469 18.707031 C 15.699219 18.914062 15.308594 19.042969 14.164062 19.425781 C 14.164062 19.425781 13.761719 20 13.5 20.417969 C 12.527344 21.976562 11.390625 23.265625 10.578125 23.738281 C 9.667969 24.261719 8.714844 24.296875 8.234375 23.824219 Z M 9.722656 23.300781 C 10.253906 22.976562 11.332031 21.71875 12.078125 20.550781 L 12.378906 20.078125 L 11.003906 20.761719 C 8.878906 21.816406 7.910156 22.808594 8.414062 23.410156 C 8.699219 23.746094 9.035156 23.71875 9.722656 23.300781 Z M 23.511719 19.480469 C 24.035156 19.121094 23.957031 18.394531 23.371094 18.105469 C 22.910156 17.875 22.542969 17.828125 21.351562 17.847656 C 20.621094 17.894531 19.445312 18.042969 19.246094 18.085938 C 19.246094 18.085938 19.890625 18.527344 20.179688 18.6875 C 20.5625 18.902344 21.488281 19.300781 22.164062 19.507812 C 22.835938 19.707031 23.21875 19.6875 23.511719 19.480469 Z M 17.96875 17.207031 C 17.652344 16.878906 17.117188 16.199219 16.777344 15.691406 C 16.332031 15.117188 16.109375 14.710938 16.109375 14.710938 C 16.109375 14.710938 15.785156 15.742188 15.519531 16.359375 L 14.6875 18.386719 L 14.445312 18.847656 C 14.445312 18.847656 15.726562 18.433594 16.378906 18.265625 C 17.070312 18.085938 18.472656 17.816406 18.472656 17.816406 Z M 16.179688 10.132812 C 16.261719 9.46875 16.296875 8.804688 16.078125 8.46875 C 15.476562 7.820312 14.75 8.363281 14.875 9.902344 C 14.917969 10.421875 15.046875 11.308594 15.222656 11.855469 L 15.539062 12.847656 L 15.761719 12.101562 C 15.882812 11.6875 16.074219 10.804688 16.179688 10.132812 Z M 16.179688 10.132812 "/>
<path style=" stroke:none;fill-rule:nonzero;fill:rgb(17.254902%,17.254902%,17.254902%);fill-opacity:1;" d="M 9.84375 28.152344 L 11.382812 28.152344 C 11.875 28.152344 12.273438 28.199219 12.578125 28.289062 C 12.886719 28.378906 13.144531 28.582031 13.351562 28.894531 C 13.5625 29.207031 13.664062 29.582031 13.664062 30.023438 C 13.664062 30.425781 13.582031 30.773438 13.410156 31.0625 C 13.242188 31.355469 13.011719 31.5625 12.722656 31.691406 C 12.4375 31.820312 12 31.886719 11.40625 31.886719 L 10.875 31.886719 L 10.875 34.277344 L 9.84375 34.277344 Z M 10.875 28.9375 L 10.875 31.074219 L 11.382812 31.074219 C 11.835938 31.074219 12.152344 30.988281 12.324219 30.820312 C 12.5 30.652344 12.585938 30.382812 12.585938 30.003906 C 12.585938 29.722656 12.53125 29.496094 12.414062 29.320312 C 12.300781 29.144531 12.171875 29.039062 12.03125 29 C 11.898438 28.957031 11.679688 28.9375 11.382812 28.9375 Z M 14.453125 28.152344 L 15.847656 28.152344 C 16.523438 28.152344 17.066406 28.269531 17.46875 28.503906 C 17.875 28.742188 18.179688 29.09375 18.386719 29.558594 C 18.597656 30.027344 18.699219 30.542969 18.699219 31.113281 C 18.699219 31.710938 18.605469 32.246094 18.417969 32.714844 C 18.234375 33.183594 17.949219 33.558594 17.5625 33.847656 C 17.179688 34.132812 16.636719 34.277344 15.925781 34.277344 L 14.453125 34.277344 Z M 15.480469 28.964844 L 15.480469 33.464844 L 15.90625 33.464844 C 16.503906 33.464844 16.9375 33.261719 17.207031 32.855469 C 17.480469 32.445312 17.613281 31.898438 17.613281 31.214844 C 17.613281 29.714844 17.046875 28.964844 15.90625 28.964844 Z M 19.6875 28.152344 L 23.136719 28.152344 L 23.136719 28.964844 L 20.714844 28.964844 L 20.714844 30.792969 L 22.652344 30.792969 L 22.652344 31.605469 L 20.714844 31.605469 L 20.714844 34.277344 L 19.6875 34.277344 Z M 19.6875 28.152344 "/>
</g>
</svg>
