<?xml version="1.0" encoding="UTF-8" standalone="no"?>
<svg
   width="452.46237pt"
   height="415.59085pt"
   viewBox="0 0 452.46237 415.59085"
   version="1.1"
   id="svg2"
   xml:space="preserve"
   xmlns="http://www.w3.org/2000/svg"
   xmlns:svg="http://www.w3.org/2000/svg"
   xmlns:rdf="http://www.w3.org/1999/02/22-rdf-syntax-ns#"
   xmlns:cc="http://creativecommons.org/ns#"
   xmlns:dc="http://purl.org/dc/elements/1.1/"><metadata
     id="metadata106"><rdf:RDF><cc:Work
         rdf:about=""><dc:format>image/svg+xml</dc:format><dc:type
           rdf:resource="http://purl.org/dc/dcmitype/StillImage" /></cc:Work></rdf:RDF></metadata><defs
     id="defs4"><clipPath
       id="clip1"><path
         d="m 0,365 h 95.21875 v 95 H 0 Z m 0,0"
         id="path7" /></clipPath></defs><path
     style="fill:#d0e7d0;fill-opacity:1;fill-rule:nonzero;stroke:#000000;stroke-width:1.58235;stroke-linecap:butt;stroke-linejoin:miter;stroke-miterlimit:10;stroke-opacity:1"
     d="m 299.88033,192.85368 c 0,-27.33594 -22.11719,-49.48829 -49.40625,-49.48829 -27.27734,0 -49.40624,22.15235 -49.40624,49.48829 0,27.33984 22.1289,49.49219 49.40624,49.49219 27.28906,0 49.40625,-22.15235 49.40625,-49.49219 z m 0,0"
     id="path10" /><path
     style="fill:#000000;fill-opacity:1;fill-rule:nonzero;stroke:none"
     d="m 231.38423,189.62321 c 0.3711,-0.375 0.3711,-0.5586 0.3711,-0.6211 0,-0.1875 -0.125,-0.43359 -0.25,-0.55859 l -8.11719,-11.73828 h 9.10937 c 6.69532,0 8.67969,1.42969 9.48438,7.69922 h 0.99219 l -1.11328,-8.94141 h -21.94532 c -0.92968,0 -0.99218,0 -0.99218,0.93359 l 9.85546,14.34375 -9.42187,10.74219 c -0.43359,0.4336 -0.43359,0.4961 -0.43359,0.6211 0,0.43359 0.43359,0.43359 0.99218,0.43359 h 21.94532 l 1.11328,-9.375 h -0.99219 c -0.67969,6.64453 -3.40625,7.69922 -9.60547,7.69922 h -10.91016 z m 0,0"
     id="path12" /><path
     style="fill:#ffbdbd;fill-opacity:1;fill-rule:nonzero;stroke:#000000;stroke-width:1.58235;stroke-linecap:butt;stroke-linejoin:miter;stroke-miterlimit:10;stroke-opacity:1"
     d="m 48.599092,23.877113 c 0,-12.746094 -10.320311,-23.08593799 -23.042964,-23.08593799 -12.722657,0 -23.0468764,10.33984399 -23.0468764,23.08593799 0,12.742187 10.3242194,23.082032 23.0468764,23.082032 12.722653,0 23.042964,-10.339845 23.042964,-23.082032 z m 0,0"
     id="path16" /><path
     style="fill:#000000;fill-opacity:1;fill-rule:nonzero;stroke:none"
     d="m 18.599075,17.447427 c 0.25,-0.992187 1.179687,-4.65625 3.90625,-4.65625 0.1875,0 1.179687,0 1.984374,0.496094 -1.117187,0.25 -1.859374,1.179688 -1.859374,2.171875 0,0.621094 0.433593,1.367187 1.488281,1.367187 0.867187,0 2.105469,-0.683593 2.105469,-2.296874 0,-2.050782 -2.292969,-2.609376 -3.65625,-2.609376 -2.292969,0 -3.65625,2.113282 -4.152344,2.980469 -0.992188,-2.605469 -3.101563,-2.980469 -4.277344,-2.980469 -4.09375,0 -6.3867194,5.09375 -6.3867194,6.085938 0,0.4375 0.433594,0.4375 0.496094,0.4375 0.308594,0 0.433594,-0.125 0.496094,-0.4375 1.3632814,-4.222656 3.9687504,-5.214844 5.3320314,-5.214844 0.742188,0 2.105469,0.371094 2.105469,2.667969 0,1.242187 -0.679688,3.851563 -2.105469,9.441406 -0.621094,2.421875 -2.046875,4.097657 -3.78125,4.097657 -0.25,0 -1.1171884,0 -1.9843754,-0.496094 0.992187,-0.25 1.8593754,-1.054688 1.8593754,-2.175782 0,-1.054687 -0.8671884,-1.363281 -1.4257814,-1.363281 -1.238281,0 -2.167969,0.992188 -2.167969,2.296875 0,1.800782 1.917969,2.605469 3.6562504,2.605469 2.664062,0 4.089844,-2.792969 4.152344,-2.980469 0.496094,1.429688 1.921875,2.980469 4.277344,2.980469 4.089843,0 6.324218,-5.089844 6.324218,-6.082031 0,-0.4375 -0.3125,-0.4375 -0.433594,-0.4375 -0.375,0 -0.433593,0.1875 -0.558593,0.4375 -1.300781,4.28125 -3.96875,5.214844 -5.207031,5.214844 -1.550782,0 -2.171876,-1.242188 -2.171876,-2.609376 0,-0.867187 0.1875,-1.738281 0.621094,-3.476562 z m 0,0"
     id="path18" /><path
     style="fill:#000000;fill-opacity:1;fill-rule:nonzero;stroke:none"
     d="m 42.243606,26.552896 c 0,-3.042969 -0.371094,-5.277344 -1.609375,-7.203125 -0.871094,-1.242188 -2.605469,-2.359375 -4.773438,-2.359375 -6.449218,0 -6.449218,7.574219 -6.449218,9.5625 0,1.988281 0,9.375 6.449218,9.375 6.382813,0 6.382813,-7.386719 6.382813,-9.375 z m -6.382813,8.570313 c -1.304687,0 -2.976562,-0.746094 -3.535156,-2.980469 -0.371094,-1.617188 -0.371094,-3.914063 -0.371094,-5.964844 0,-2.046875 0,-4.160156 0.371094,-5.648437 0.621094,-2.171876 2.355469,-2.792969 3.535156,-2.792969 1.484375,0 2.910156,0.929687 3.40625,2.542969 0.433594,1.492187 0.496094,3.480468 0.496094,5.898437 0,2.050781 0,4.101563 -0.371094,5.839844 -0.558594,2.546875 -2.417968,3.105469 -3.53125,3.105469 z m 0,0"
     id="path20" /><path
     style="fill:#ffbdbd;fill-opacity:1;fill-rule:nonzero;stroke:#000000;stroke-width:1.58235;stroke-linecap:butt;stroke-linejoin:miter;stroke-miterlimit:10;stroke-opacity:1"
     d="m 48.599092,108.37321 c 0,-12.761719 -10.320311,-23.085939 -23.042964,-23.085939 -12.722657,0 -23.0468764,10.32422 -23.0468764,23.085939 0,12.74609 10.3242194,23.0664 23.0468764,23.0664 12.722653,0 23.042964,-10.32031 23.042964,-23.0664 z m 0,0"
     id="path22" /><path
     style="fill:#000000;fill-opacity:1;fill-rule:nonzero;stroke:none"
     d="m 18.599075,101.93961 c 0.25,-0.99609 1.179687,-4.660149 3.90625,-4.660149 0.1875,0 1.179687,0 1.984374,0.5 -1.117187,0.24609 -1.859374,1.17969 -1.859374,2.17187 0,0.621099 0.433593,1.367189 1.488281,1.367189 0.867187,0 2.105469,-0.68359 2.105469,-2.296869 0,-2.05079 -2.292969,-2.60938 -3.65625,-2.60938 -2.292969,0 -3.65625,2.10938 -4.152344,2.98047 -0.992188,-2.60938 -3.101563,-2.98047 -4.277344,-2.98047 -4.09375,0 -6.3867194,5.089839 -6.3867194,6.085939 0,0.43359 0.433594,0.43359 0.496094,0.43359 0.308594,0 0.433594,-0.125 0.496094,-0.43359 1.3632814,-4.222659 3.9687504,-5.218749 5.3320314,-5.218749 0.742188,0 2.105469,0.375 2.105469,2.67187 0,1.242189 -0.679688,3.851569 -2.105469,9.437499 -0.621094,2.42188 -2.046875,4.09766 -3.78125,4.09766 -0.25,0 -1.1171884,0 -1.9843754,-0.4961 0.992187,-0.24609 1.8593754,-1.05468 1.8593754,-2.17187 0,-1.05469 -0.8671884,-1.36719 -1.4257814,-1.36719 -1.238281,0 -2.167969,0.99219 -2.167969,2.29688 0,1.80078 1.917969,2.60937 3.6562504,2.60937 2.664062,0 4.089844,-2.79297 4.152344,-2.98047 0.496094,1.42969 1.921875,2.98047 4.277344,2.98047 4.089843,0 6.324218,-5.09375 6.324218,-6.08594 0,-0.43359 -0.3125,-0.43359 -0.433594,-0.43359 -0.375,0 -0.433593,0.1875 -0.558593,0.43359 -1.300781,4.28516 -3.96875,5.21485 -5.207031,5.21485 -1.550782,0 -2.171876,-1.24219 -2.171876,-2.60547 0,-0.87109 0.1875,-1.73828 0.621094,-3.47656 z m 0,0"
     id="path24" /><path
     style="fill:#000000;fill-opacity:1;fill-rule:nonzero;stroke:none"
     d="m 37.224075,102.22477 c 0,-0.74609 0,-0.74609 -0.808594,-0.74609 -1.796875,1.73828 -4.277344,1.73828 -5.390625,1.73828 v 0.99609 c 0.617187,0 2.480469,0 3.964843,-0.74609 v 14.09375 c 0,0.93359 0,1.30468 -2.726562,1.30468 h -1.054688 v 0.9961 c 0.496094,0 3.90625,-0.125 4.898438,-0.125 0.867188,0 4.339844,0.125 4.960938,0.125 v -0.9961 h -1.054688 c -2.789062,0 -2.789062,-0.37109 -2.789062,-1.30468 z m 0,0"
     id="path26" /><path
     style="fill:#ffbdbd;fill-opacity:1;fill-rule:nonzero;stroke:#000000;stroke-width:1.58235;stroke-linecap:butt;stroke-linejoin:miter;stroke-miterlimit:10;stroke-opacity:1"
     d="m 48.599092,192.85368 c 0,-12.7461 -10.320311,-23.08204 -23.042964,-23.08204 -12.722657,0 -23.0468764,10.33594 -23.0468764,23.08204 0,12.74609 10.3242194,23.08594 23.0468764,23.08594 12.722653,0 23.042964,-10.33985 23.042964,-23.08594 z m 0,0"
     id="path28" /><path
     style="fill:#000000;fill-opacity:1;fill-rule:nonzero;stroke:none"
     d="m 18.599075,186.42789 c 0.25,-0.99218 1.179687,-4.65625 3.90625,-4.65625 0.1875,0 1.179687,0 1.984374,0.4961 -1.117187,0.25 -1.859374,1.17969 -1.859374,2.17187 0,0.6211 0.433593,1.36719 1.488281,1.36719 0.867187,0 2.105469,-0.68359 2.105469,-2.29687 0,-2.05079 -2.292969,-2.60938 -3.65625,-2.60938 -2.292969,0 -3.65625,2.11328 -4.152344,2.98047 -0.992188,-2.60547 -3.101563,-2.98047 -4.277344,-2.98047 -4.09375,0 -6.3867194,5.09375 -6.3867194,6.08594 0,0.43359 0.433594,0.43359 0.496094,0.43359 0.308594,0 0.433594,-0.12109 0.496094,-0.43359 1.3632814,-4.22266 3.9687504,-5.21485 5.3320314,-5.21485 0.742188,0 2.105469,0.3711 2.105469,2.66797 0,1.24219 -0.679688,3.85157 -2.105469,9.44141 -0.621094,2.42187 -2.046875,4.09766 -3.78125,4.09766 -0.25,0 -1.1171884,0 -1.9843754,-0.4961 0.992187,-0.25 1.8593754,-1.05859 1.8593754,-2.17578 0,-1.05469 -0.8671884,-1.36328 -1.4257814,-1.36328 -1.238281,0 -2.167969,0.99219 -2.167969,2.29687 0,1.80079 1.917969,2.60547 3.6562504,2.60547 2.664062,0 4.089844,-2.79297 4.152344,-2.98047 0.496094,1.42969 1.921875,2.98047 4.277344,2.98047 4.089843,0 6.324218,-5.08984 6.324218,-6.08203 0,-0.4375 -0.3125,-0.4375 -0.433594,-0.4375 -0.375,0 -0.433593,0.1875 -0.558593,0.4375 -1.300781,4.28125 -3.96875,5.21485 -5.207031,5.21485 -1.550782,0 -2.171876,-1.24219 -2.171876,-2.60938 0,-0.86719 0.1875,-1.73828 0.621094,-3.47656 z m 0,0"
     id="path30" /><path
     style="fill:#000000;fill-opacity:1;fill-rule:nonzero;stroke:none"
     d="m 41.935012,199.32243 h -0.929687 c -0.0625,0.61718 -0.371094,2.23437 -0.746094,2.48046 -0.183594,0.1875 -2.292969,0.1875 -2.726563,0.1875 h -5.082031 c 2.914062,-2.54687 3.90625,-3.35156 5.515625,-4.65625 2.046875,-1.61328 3.96875,-3.35546 3.96875,-5.96093 0,-3.35547 -2.914063,-5.40235 -6.449219,-5.40235 -3.40625,0 -5.765625,2.42188 -5.765625,4.96485 0,1.36718 1.179688,1.55468 1.488281,1.55468 0.621094,0 1.425782,-0.49609 1.425782,-1.49218 0,-0.4961 -0.183594,-1.48828 -1.609375,-1.48828 0.867187,-1.92579 2.726562,-2.54688 4.027343,-2.54688 2.789063,0 4.214844,2.17188 4.214844,4.41016 0,2.42187 -1.734375,4.28515 -2.601562,5.27734 l -6.632813,6.64453 c -0.3125,0.2461 -0.3125,0.3086 -0.3125,1.05469 h 11.40625 z m 0,0"
     id="path32" /><path
     style="fill:#ffbdbd;fill-opacity:1;fill-rule:nonzero;stroke:#000000;stroke-width:1.58235;stroke-linecap:butt;stroke-linejoin:miter;stroke-miterlimit:10;stroke-opacity:1"
     d="m 48.599092,277.34977 c 0,-12.74219 -10.320311,-23.08203 -23.042964,-23.08203 -12.722657,0 -23.0468764,10.33984 -23.0468764,23.08203 0,12.7461 10.3242194,23.08594 23.0468764,23.08594 12.722653,0 23.042964,-10.33984 23.042964,-23.08594 z m 0,0"
     id="path34" /><path
     style="fill:#000000;fill-opacity:1;fill-rule:nonzero;stroke:none"
     d="m 18.599075,270.92008 c 0.25,-0.99609 1.179687,-4.66015 3.90625,-4.66015 0.1875,0 1.179687,0 1.984374,0.5 -1.117187,0.24609 -1.859374,1.17968 -1.859374,2.17187 0,0.62109 0.433593,1.36719 1.488281,1.36719 0.867187,0 2.105469,-0.6836 2.105469,-2.30078 0,-2.04688 -2.292969,-2.60547 -3.65625,-2.60547 -2.292969,0 -3.65625,2.10937 -4.152344,2.98047 -0.992188,-2.60938 -3.101563,-2.98047 -4.277344,-2.98047 -4.09375,0 -6.3867194,5.08984 -6.3867194,6.08594 0,0.43359 0.433594,0.43359 0.496094,0.43359 0.308594,0 0.433594,-0.125 0.496094,-0.43359 1.3632814,-4.22266 3.9687504,-5.21875 5.3320314,-5.21875 0.742188,0 2.105469,0.375 2.105469,2.67187 0,1.24219 -0.679688,3.85156 -2.105469,9.4375 -0.621094,2.42188 -2.046875,4.09766 -3.78125,4.09766 -0.25,0 -1.1171884,0 -1.9843754,-0.4961 0.992187,-0.24609 1.8593754,-1.05468 1.8593754,-2.17187 0,-1.05469 -0.8671884,-1.36719 -1.4257814,-1.36719 -1.238281,0 -2.167969,0.99219 -2.167969,2.29688 0,1.80078 1.917969,2.60937 3.6562504,2.60937 2.664062,0 4.089844,-2.79297 4.152344,-2.98047 0.496094,1.42969 1.921875,2.98047 4.277344,2.98047 4.089843,0 6.324218,-5.09375 6.324218,-6.08594 0,-0.43359 -0.3125,-0.43359 -0.433594,-0.43359 -0.375,0 -0.433593,0.18359 -0.558593,0.43359 -1.300781,4.28516 -3.96875,5.21485 -5.207031,5.21485 -1.550782,0 -2.171876,-1.24219 -2.171876,-2.60547 0,-0.8711 0.1875,-1.73828 0.621094,-3.47656 z m 0,0"
     id="path36" /><path
     style="fill:#000000;fill-opacity:1;fill-rule:nonzero;stroke:none"
     d="m 35.548293,279.58805 c 2.171875,0 3.71875,1.49219 3.71875,4.47266 0,3.41406 -2.042968,4.46875 -3.59375,4.46875 -1.117187,0 -3.59375,-0.3086 -4.710937,-1.98828 1.300781,0 1.609375,-0.92969 1.609375,-1.55079 0,-0.87109 -0.679688,-1.48828 -1.546875,-1.48828 -0.746094,0 -1.550781,0.4961 -1.550781,1.61328 0,2.60547 2.851562,4.28516 6.199218,4.28516 3.84375,0 6.507813,-2.60937 6.507813,-5.33984 0,-2.17578 -1.734375,-4.34766 -4.773438,-4.96875 2.851563,-1.05469 3.90625,-3.10547 3.90625,-4.84375 0,-2.17188 -2.480469,-3.78907 -5.578125,-3.78907 -3.039062,0 -5.394531,1.49219 -5.394531,3.72657 0,0.92968 0.621094,1.42968 1.425781,1.42968 0.867188,0 1.425782,-0.62109 1.425782,-1.36718 0,-0.8086 -0.558594,-1.42969 -1.425782,-1.49219 0.992188,-1.17969 2.851563,-1.48828 3.90625,-1.48828 1.238282,0 2.976563,0.62109 2.976563,2.98047 0,1.17968 -0.375,2.48437 -1.117188,3.28906 -0.867187,1.05859 -1.671875,1.12109 -3.039062,1.24219 -0.679688,0.0625 -0.742188,0.0625 -0.867188,0.0625 -0.0625,0 -0.308593,0.0625 -0.308593,0.375 0,0.37109 0.246093,0.37109 0.742187,0.37109 z m 0,0"
     id="path38" /><path
     style="fill:#ffbdbd;fill-opacity:1;fill-rule:nonzero;stroke:none"
     d="m 50.306106,390.00993 c 0,-13.70704 -11.082031,-24.8086 -24.75,-24.8086 -13.683594,0 -24.76562535,11.10156 -24.76562535,24.8086 0,13.6914 11.08203135,24.78906 24.76562535,24.78906 13.667969,0 24.75,-11.09766 24.75,-24.78906 z m 0,0"
     id="path40" /><g
     clip-path="url(#clip1)"
     clip-rule="nonzero"
     id="g42"
     transform="translate(-22.486863,-22.525229)"><path
       style="fill:none;stroke:#000000;stroke-width:0.3985;stroke-linecap:butt;stroke-linejoin:miter;stroke-miterlimit:10;stroke-opacity:1"
       d="m -50.454183,-49.608942 c 0,3.449058 -2.793279,6.24251 -6.238356,6.24251 -3.449016,0 -6.242295,-2.793452 -6.242295,-6.24251 0,-3.445126 2.793279,-6.237595 6.242295,-6.237595 3.445077,0 6.238356,2.792469 6.238356,6.237595 z m 0,0"
       transform="matrix(3.967391,0,0,-3.974138,272.96446,215.38238)"
       id="path44" /></g><path
     style="fill:#000000;fill-opacity:1;fill-rule:nonzero;stroke:none"
     d="m 16.708449,383.56852 c 0.246094,-0.99219 1.175782,-4.65625 3.90625,-4.65625 0.183594,0 1.175782,0 1.980469,0.49609 -1.113281,0.25 -1.859375,1.17969 -1.859375,2.17578 0,0.6211 0.433594,1.36329 1.488282,1.36329 0.867187,0 2.109374,-0.6836 2.109374,-2.29688 0,-2.04687 -2.292968,-2.60937 -3.660156,-2.60937 -2.292968,0 -3.65625,2.11328 -4.152344,2.98437 -0.992187,-2.60937 -3.097656,-2.98437 -4.277343,-2.98437 -4.0898444,0 -6.3828134,5.09375 -6.3828134,6.08593 0,0.4375 0.433594,0.4375 0.496094,0.4375 0.308594,0 0.433594,-0.125 0.492188,-0.4375 1.367187,-4.22265 3.9687504,-5.21484 5.3320314,-5.21484 0.746093,0 2.109375,0.37109 2.109375,2.67187 0,1.24219 -0.683594,3.84766 -2.109375,9.4375 -0.617188,2.42188 -2.042969,4.09766 -3.7812504,4.09766 -0.246094,0 -1.113281,0 -1.984375,-0.49609 0.992187,-0.25 1.859375,-1.05469 1.859375,-2.17578 0,-1.05469 -0.867188,-1.36329 -1.425781,-1.36329 -1.238282,0 -2.167969,0.99219 -2.167969,2.29688 0,1.80078 1.921875,2.60937 3.65625,2.60937 2.6679694,0 4.0937504,-2.79687 4.1562504,-2.98046 0.496093,1.42578 1.921875,2.98046 4.277343,2.98046 4.089844,0 6.320313,-5.09375 6.320313,-6.08593 0,-0.4375 -0.308594,-0.4375 -0.433594,-0.4375 -0.371093,0 -0.433593,0.1875 -0.558593,0.4375 -1.300782,4.28515 -3.964844,5.21484 -5.207032,5.21484 -1.546875,0 -2.167968,-1.24219 -2.167968,-2.60937 0,-0.86719 0.1875,-1.73829 0.621093,-3.47657 z m 0,0"
     id="path46" /><path
     style="fill:#000000;fill-opacity:1;fill-rule:nonzero;stroke:none"
     d="m 29.442825,399.75211 c -0.0625,0.375 -0.25,1.05469 -0.25,1.11719 0,0.62109 0.496093,0.87109 0.929687,0.87109 0.496094,0 0.929687,-0.3125 1.117187,-0.55859 0.125,-0.25 0.308594,-1.17969 0.496094,-1.73828 0.125,-0.49609 0.433594,-1.80078 0.558594,-2.48438 0.183594,-0.62109 0.371094,-1.24218 0.496094,-1.86328 0.308594,-1.11718 0.371094,-1.36718 1.175781,-2.48437 0.746094,-1.11719 2.046875,-2.54688 4.152344,-2.54688 1.550781,0 1.613281,1.42969 1.613281,1.92578 0,1.67579 -1.179688,4.71875 -1.613281,5.89844 -0.308594,0.8086 -0.433594,1.0586 -0.433594,1.49219 0,1.48828 1.179687,2.35937 2.605469,2.35937 2.789062,0 3.964844,-3.78906 3.964844,-4.22265 0,-0.3711 -0.308594,-0.3711 -0.433594,-0.3711 -0.371094,0 -0.371094,0.1836 -0.496094,0.4961 -0.617188,2.23437 -1.859375,3.35156 -2.910156,3.35156 -0.621094,0 -0.746094,-0.37109 -0.746094,-0.99219 0,-0.62109 0.1875,-0.99609 0.683594,-2.23828 0.308594,-0.86719 1.425781,-3.78515 1.425781,-5.33984 0,-2.66797 -2.109375,-3.16406 -3.597656,-3.16406 -2.292969,0 -3.84375,1.42578 -4.648438,2.54296 -0.1875,-1.92187 -1.796875,-2.54296 -2.976562,-2.54296 -1.175781,0 -1.796875,0.86718 -2.167969,1.48828 -0.621094,1.05468 -0.992188,2.60937 -0.992188,2.79687 0,0.3086 0.371094,0.3086 0.496094,0.3086 0.371094,0 0.371094,-0.0625 0.558594,-0.8086 0.433594,-1.61328 0.992188,-2.98047 2.042969,-2.98047 0.746093,0 0.929687,0.6211 0.929687,1.36719 0,0.49609 -0.246094,1.55078 -0.496094,2.29688 -0.183593,0.74609 -0.433593,1.86328 -0.554687,2.48437 z m 0,0"
     id="path48" /><path
     style="fill:none;stroke:#909090;stroke-width:3.16474;stroke-linecap:butt;stroke-linejoin:miter;stroke-miterlimit:10;stroke-opacity:1"
     d="m 49.392062,23.877113 c 84.351558,0 133.726558,52.113281 174.503898,122.855467"
     id="path50" /><path
     style="fill:none;stroke:#909090;stroke-width:2.5398;stroke-linecap:round;stroke-linejoin:round;stroke-miterlimit:10;stroke-opacity:1"
     d="m 227.93892,137.23258 c -2.41797,2.00391 -3.59375,9.23438 -3.26953,10.83594 -1.22266,-1.08594 -8.07422,-3.67969 -11.01953,-2.57812"
     id="path52" /><path
     style="fill:#000000;fill-opacity:1;fill-rule:nonzero;stroke:none"
     d="m 165.62251,35.384927 c 0.67969,-0.558594 1.92188,-1.425781 2.04688,-1.613281 0.49609,-0.558594 0.24609,-1.117187 -0.25,-1.492187 -0.37109,-0.308594 -1.11719,-0.496094 -1.79688,-0.0625 -0.30859,0.125 -6.38671,4.96875 -7.3164,5.589843 -0.86719,0.746094 -1.42578,1.242188 -1.92188,1.800781 -0.24609,0.371094 -0.24609,0.433594 -0.30859,0.621094 -2.04688,1.054688 -3.78125,1.304688 -5.01953,0.3125 -2.48047,-1.925781 -0.6836,-4.164062 -0.25,-4.722656 0.80469,-1.054688 1.98437,-2.171875 6.38672,-4.84375 1.11328,-0.679688 1.60937,-0.929688 2.10547,-1.550781 1.11718,-1.429688 0.92968,-3.351563 -0.5586,-4.53125 -2.97265,-2.359375 -7.625,1.300781 -7.80859,1.550781 -0.25,0.3125 0.0625,0.496094 0.0625,0.558594 0.37109,0.25 0.43359,0.1875 0.92969,-0.1875 3.16015,-2.234375 5.14453,-2.171875 6.19921,-1.363282 0.3086,0.246094 0.80469,0.621094 0,1.675782 -0.62109,0.746094 -1.67578,1.429687 -2.29687,1.675781 -4.27734,2.671875 -5.70313,3.789063 -6.69141,5.03125 -2.23437,2.792969 -0.99218,5.527344 1.36328,7.386719 0.4961,0.4375 1.98438,1.554687 4.89454,0.3125 -0.74219,2.609375 1.30468,4.59375 2.23437,5.339844 2.35547,1.800781 5.20703,0.929687 7.5,-0.371094 2.97656,-1.554688 7.25391,-4.96875 8.42969,-6.460938 1.36328,-1.738281 0.80469,-2.855468 0.3125,-3.289062 -0.8086,-0.621094 -2.17188,-0.433594 -2.66797,0.246094 -0.37109,0.4375 -0.30859,0.746093 -0.24609,1.242187 0.0625,0.683594 0.18359,2.050781 -0.99219,3.539063 -0.8086,1.121093 -4.09375,3.480468 -6.13672,4.347656 -2.10938,1.054687 -4.09375,1.242187 -5.58203,0.0625 -1.48438,-1.179688 -1.60938,-2.730469 -0.1836,-4.59375 0.67969,-0.871094 1.67188,-1.617188 2.10547,-1.925782 z m 0,0"
     id="path54" /><path
     style="fill:#000000;fill-opacity:1;fill-rule:nonzero;stroke:none"
     d="m 176.87125,60.191756 c 2.5548,-1.741294 4.15273,-3.326302 5.01436,-5.46368 0.57766,-1.448458 0.48126,-3.425819 -0.7536,-5.307508 -3.67179,-5.303487 -9.92283,-1.07158 -11.58461,0.100809 -1.58726,1.130127 -7.76121,5.324661 -4.08941,10.628147 3.65694,5.364324 9.82973,1.173519 11.41326,0.04223 z m -10.755,-0.48783 c -0.72563,-1.007251 -1.05562,-2.865036 0.45895,-4.602816 1.15584,-1.203039 3.05237,-2.498734 4.71416,-3.671123 1.64436,-1.116444 3.38813,-2.328774 4.925,-2.889557 2.20026,-0.812509 3.65311,0.355635 4.27797,1.26606 0.85009,1.238273 0.94394,3.026653 -0.10996,4.322786 -1.01792,1.180511 -2.66113,2.293225 -4.65449,3.689698 -1.66178,1.172389 -3.40554,2.384719 -5.05782,3.105957 -2.3939,1.014065 -3.94754,-0.250904 -4.55381,-1.221005 z m 0,0"
     id="path56" /><path
     style="fill:none;stroke:#909090;stroke-width:3.16474;stroke-linecap:butt;stroke-linejoin:miter;stroke-miterlimit:10;stroke-opacity:1"
     d="m 49.392062,108.37321 c 65.476558,0 100.765618,26.46875 155.039058,57.85937"
     id="path58" /><path
     style="fill:none;stroke:#909090;stroke-width:2.53979;stroke-linecap:round;stroke-linejoin:round;stroke-miterlimit:10;stroke-opacity:1"
     d="m 203.18892,155.97086 c -1.10157,2.94922 1.50391,9.8086 2.57422,11.03516 -1.59766,-0.33985 -8.82032,0.85547 -10.81641,3.27734"
     id="path60" /><path
     style="fill:#000000;fill-opacity:1;fill-rule:nonzero;stroke:none"
     d="m 137.7397,99.771651 c 0.4961,-0.7461 1.48828,-1.86329 1.60938,-2.10938 0.3125,-0.68359 -0.0586,-1.17969 -0.67969,-1.42969 -0.37109,-0.1875 -1.17969,-0.25 -1.73438,0.3711 -0.1875,0.25 -5.02343,6.398429 -5.70312,7.265619 -0.68359,0.9336 -1.11719,1.49219 -1.42578,2.17578 -0.1875,0.4336 -0.1875,0.4961 -0.1875,0.67969 -1.73438,1.55469 -3.28516,2.23828 -4.71094,1.61719 -2.91406,-1.30469 -1.73437,-3.97656 -1.48828,-4.59766 0.55859,-1.23828 1.36328,-2.54297 5.08203,-6.269529 0.80859,-0.87109 1.30469,-1.24219 1.61328,-1.98828 0.74219,-1.67578 0.0625,-3.53906 -1.67578,-4.28516 -3.46875,-1.55078 -7.06641,3.10547 -7.1875,3.48047 -0.1875,0.3086 0.18359,0.4336 0.24609,0.4961 0.3711,0.125 0.4336,0.0625 0.86719,-0.375 2.48047,-2.98047 4.40235,-3.41407 5.64063,-2.85547 0.375,0.125 0.92968,0.37109 0.375,1.55468 -0.375,0.92969 -1.24219,1.80079 -1.80078,2.23438 -3.46875,3.60156 -4.58594,5.027339 -5.20704,6.457029 -1.48828,3.29297 0.3125,5.58984 3.03907,6.83203 0.62109,0.24609 2.35547,1.05469 4.89843,-0.87109 -0.0625,2.79297 2.35547,4.09765 3.46875,4.59375 2.66797,1.17968 5.26954,-0.3711 7.19141,-2.17188 2.48047,-2.23437 5.82813,-6.58203 6.63281,-8.38281 0.86719,-1.98828 0.0625,-2.917969 -0.61718,-3.167969 -0.8711,-0.43359 -2.17188,0.125 -2.54297,0.9336 -0.1875,0.496089 -0.0625,0.746089 0.125,1.179679 0.24609,0.6836 0.74218,1.92578 -0.0625,3.66407 -0.5586,1.30468 -3.10157,4.34374 -4.89844,5.77343 -1.79688,1.49219 -3.59375,2.23438 -5.39453,1.42969 -1.67188,-0.74609 -2.16797,-2.29688 -1.23828,-4.41016 0.43359,-0.99218 1.17968,-1.92578 1.48828,-2.42187 z m 0,0"
     id="path62" /><path
     style="fill:#000000;fill-opacity:1;fill-rule:nonzero;stroke:none"
     d="m 156.32801,110.84831 c 0.45651,-0.59509 0.47079,-0.65594 -0.18135,-1.12583 -2.4304,0.3208 -4.49714,-1.18294 -5.36413,-1.8316 l -0.6344,0.80614 c 0.48677,0.37092 1.94505,1.4752 3.72211,1.76754 l -8.56166,11.2567 c -0.56016,0.76337 -0.80936,1.0219 -3.03012,-0.64635 l -0.80614,-0.63439 -0.57354,0.82042 c 0.37934,0.28153 3.15817,2.27323 3.97859,2.84677 0.70162,0.5497 3.42427,2.781 3.85019,3.13766 l 0.57443,-0.82422 -0.867,-0.64866 c -2.1599,-1.65398 -1.906,-1.91542 -1.34673,-2.67498 z m 0,0"
     id="path64" /><path
     style="fill:none;stroke:#909090;stroke-width:3.16474;stroke-linecap:butt;stroke-linejoin:miter;stroke-miterlimit:10;stroke-opacity:1"
     d="m 49.392062,192.85368 c 58.843748,0 92.039058,0 148.078118,0"
     id="path66" /><path
     style="fill:none;stroke:#909090;stroke-width:2.53176;stroke-linecap:round;stroke-linejoin:round;stroke-miterlimit:10;stroke-opacity:1"
     d="m 191.3022,184.62712 c 0.51172,3.08984 6.16797,7.71484 7.71875,8.22656 -1.55078,0.51171 -7.20703,5.15625 -7.71875,8.24218"
     id="path68" /><path
     style="fill:#000000;fill-opacity:1;fill-rule:nonzero;stroke:none"
     d="m 120.10689,166.64274 c 0.1875,-0.86719 0.55859,-2.35938 0.55859,-2.60547 0,-0.68359 -0.55859,-1.05859 -1.11718,-1.05859 -0.4961,0 -1.17579,0.3125 -1.48829,1.11718 -0.12109,0.25 -1.98437,7.82422 -2.23046,8.88282 -0.3086,1.17968 -0.3711,1.86328 -0.3711,2.60546 0,0.4375 0,0.5 0.0625,0.6836 -0.92969,2.11328 -2.10937,3.35547 -3.66015,3.35547 -3.16016,0 -3.16016,-2.92188 -3.16016,-3.60157 0,-1.24218 0.1875,-2.79687 2.04687,-7.70312 0.4336,-1.17969 0.67969,-1.73828 0.67969,-2.54297 0,-1.73828 -1.30078,-3.23047 -3.22265,-3.23047 -3.78125,0 -5.20703,5.77344 -5.20703,6.08594 0,0.43359 0.37109,0.43359 0.43359,0.43359 0.43359,0 0.43359,-0.125 0.62109,-0.74609 1.11328,-3.66016 2.60156,-4.90234 4.02735,-4.90234 0.37109,0 0.99218,0.0625 0.99218,1.30078 0,0.99609 -0.43359,2.11328 -0.74218,2.79687 -1.73829,4.65625 -2.17188,6.45703 -2.17188,8.00781 0,3.60157 2.60547,4.96875 5.58203,4.96875 0.67969,0 2.53906,0 4.08985,-2.79296 1.05468,2.54687 3.78125,2.79296 4.96093,2.79296 2.97266,0 4.71094,-2.48437 5.76172,-4.84375 1.30469,-3.10546 2.60547,-8.44531 2.60547,-10.30859 0,-2.17187 -1.05469,-2.79297 -1.73437,-2.79297 -0.99219,0 -1.98438,1.05469 -1.98438,1.92578 0,0.4961 0.24609,0.7461 0.55859,1.05469 0.4336,0.43359 1.42579,1.42969 1.42579,3.35547 0,1.36328 -1.11719,5.21484 -2.17188,7.26172 -0.99219,2.11328 -2.41797,3.48047 -4.33984,3.48047 -1.85938,0 -2.91407,-1.17969 -2.91407,-3.48047 0,-1.05469 0.25,-2.29688 0.4336,-2.85547 z m 0,0"
     id="path70" /><path
     style="fill:#000000;fill-opacity:1;fill-rule:nonzero;stroke:none"
     d="m 144.06783,180.96696 h -0.92969 c -0.0625,0.62109 -0.375,2.23828 -0.74609,2.48437 -0.1836,0.1875 -2.29297,0.1875 -2.72657,0.1875 h -5.08203 c 2.91406,-2.54687 3.90235,-3.35547 5.51563,-4.65625 2.04687,-1.61719 3.96875,-3.35547 3.96875,-5.96094 0,-3.35546 -2.91407,-5.40234 -6.44922,-5.40234 -3.41016,0 -5.76563,2.41797 -5.76563,4.96484 0,1.36719 1.17969,1.55469 1.48828,1.55469 0.6211,0 1.42579,-0.5 1.42579,-1.49219 0,-0.49609 -0.1836,-1.48828 -1.60938,-1.48828 0.86719,-1.92578 2.72656,-2.54687 4.02734,-2.54687 2.78907,0 4.21485,2.17187 4.21485,4.41015 0,2.41797 -1.73438,4.28125 -2.60156,5.27735 l -6.63282,6.64453 c -0.3125,0.24609 -0.3125,0.30859 -0.3125,1.05469 h 11.40625 z m 0,0"
     id="path72" /><path
     style="fill:none;stroke:#909090;stroke-width:3.16474;stroke-linecap:butt;stroke-linejoin:miter;stroke-miterlimit:10;stroke-opacity:1"
     d="m 49.392062,277.34977 c 65.476558,0 100.765618,-26.46484 155.039058,-57.85547"
     id="path74" /><path
     style="fill:none;stroke:#909090;stroke-width:2.53979;stroke-linecap:round;stroke-linejoin:round;stroke-miterlimit:10;stroke-opacity:1"
     d="m 194.94283,215.4279 c 2,2.4375 9.22265,3.61718 10.82031,3.28906 -1.07031,1.22656 -3.67578,8.08984 -2.57422,11.02344"
     id="path76" /><path
     style="fill:#000000;fill-opacity:1;fill-rule:nonzero;stroke:none"
     d="m 116.44283,237.92008 c -0.25,-0.86719 -0.3711,-2.35937 -0.4961,-2.60547 -0.30859,-0.68359 -0.92968,-0.68359 -1.55078,-0.4375 -0.37109,0.1875 -0.92969,0.7461 -0.86719,1.49219 0.0625,0.37109 1.42579,8.00781 1.61329,9.12891 0.18359,1.17968 0.37109,1.85937 0.67968,2.54297 0.1875,0.4375 0.1875,0.5 0.3125,0.55859 0,2.30078 -0.55859,3.97656 -1.98437,4.59766 -2.91406,1.30468 -4.09375,-1.36719 -4.33985,-1.98829 -0.55859,-1.24218 -0.99218,-2.66796 -1.24218,-7.88671 -0.0586,-1.24219 -0.0586,-1.86329 -0.3711,-2.60547 -0.74218,-1.67969 -2.53906,-2.42188 -4.27734,-1.67969 -3.46875,1.55469 -2.48047,7.32812 -2.35547,7.70312 0.1875,0.3086 0.5586,0.1836 0.6211,0.1211 0.37109,-0.1211 0.30859,-0.1836 0.24609,-0.86719 -0.49609,-3.85156 0.43359,-5.52734 1.67578,-6.08594 0.37109,-0.125 0.92969,-0.37109 1.48828,0.8086 0.37109,0.92968 0.49609,2.04687 0.43359,2.73047 0.2461,5.09375 0.61719,6.89453 1.23829,8.32031 1.48828,3.29297 4.40234,3.47656 7.1289,2.23437 0.6211,-0.24609 2.35547,-1.05468 2.66797,-4.22265 1.92188,1.92578 4.58594,0.99609 5.70313,0.5 2.66406,-1.17969 3.28515,-4.10157 3.22265,-6.76953 0,-3.35547 -0.99219,-8.69532 -1.79687,-10.4961 -0.8711,-1.98437 -2.04688,-2.04687 -2.73047,-1.80078 -0.86719,0.4375 -1.42578,1.73828 -1.05078,2.54688 0.18359,0.49609 0.55468,0.62109 0.98828,0.68359 0.62109,0.30859 1.86328,0.80859 2.66797,2.54687 0.55859,1.30469 1.11328,5.21485 0.92968,7.51172 -0.0625,2.35938 -0.74609,4.22266 -2.54296,5.03125 -1.67188,0.7461 -3.16016,0.0625 -4.08985,-2.05078 -0.43359,-0.99219 -0.68359,-2.17187 -0.74609,-2.79297 z m 0,0"
     id="path78" /><path
     style="fill:#000000;fill-opacity:1;fill-rule:nonzero;stroke:none"
     d="m 136.66401,240.08996 c 1.80873,-1.08668 3.86584,-0.57415 5.41043,1.99549 1.71194,2.92775 0.55798,4.8115 -0.84165,5.66199 -0.93563,0.545 -3.18947,1.55747 -5.0338,0.70961 1.09641,-0.75241 0.92678,-1.67259 0.61797,-2.19911 -0.45411,-0.6945 -1.35873,-0.96711 -2.11874,-0.50146 -0.63962,0.38484 -1.10854,1.19031 -0.49425,2.18083 1.32665,2.28426 4.68802,2.20904 7.54547,0.50132 3.33253,-1.95158 4.29345,-5.49996 2.89751,-7.8391 -1.09001,-1.87127 -3.76635,-2.87433 -6.70255,-1.84565 1.96498,-2.41823 1.81735,-4.7763 0.95966,-6.23801 -1.15253,-1.86795 -4.15923,-1.95577 -6.78663,-0.40056 -2.68949,1.56241 -3.90327,4.01544 -2.74398,5.94159 0.47286,0.8221 1.30099,0.97773 1.99504,0.51973 0.76766,-0.39968 0.84968,-1.28613 0.4644,-1.92962 -0.39249,-0.70558 -1.16197,-0.86409 -1.93295,-0.52694 0.19717,-1.52111 1.73311,-2.82391 2.55132,-3.29631 1.11081,-0.62824 2.9434,-0.9666 4.17963,1.0804 0.55941,1.0598 0.83387,2.34141 0.71091,3.41742 -0.28041,1.34595 -0.97879,1.80051 -2.0752,2.55292 -0.57376,0.44405 -0.63584,0.45125 -0.68397,0.57874 -0.0621,0.007 -0.22286,0.2146 -0.081,0.38691 0.2362,0.4091 0.40806,0.26334 0.8797,0.0238 z m 0,0"
     id="path80" /><path
     style="fill:none;stroke:#909090;stroke-width:3.16474;stroke-linecap:butt;stroke-linejoin:miter;stroke-miterlimit:10;stroke-opacity:1"
     d="m 51.095188,390.00993 c 90.460932,0 128.972652,-74.9961 172.800772,-151.01953"
     id="path82" /><path
     style="fill:none;stroke:#909090;stroke-width:2.53976;stroke-linecap:round;stroke-linejoin:round;stroke-miterlimit:10;stroke-opacity:1"
     d="m 213.64986,240.21696 c 2.94531,1.10156 9.79687,-1.48828 11.01953,-2.57422 -0.32422,1.59765 0.85156,8.84765 3.26953,10.83593"
     id="path84" /><path
     style="fill:#000000;fill-opacity:1;fill-rule:nonzero;stroke:none"
     d="m 131.46236,329.6818 c -0.4961,-0.74219 -1.36328,-1.98437 -1.54688,-2.17187 -0.49609,-0.4336 -1.11718,-0.3711 -1.48828,0.0625 -0.3125,0.37109 -0.55859,1.11718 -0.1875,1.86328 0.0625,0.24609 4.33985,6.82812 4.96094,7.69922 0.67969,0.99218 1.11328,1.55078 1.60937,2.05078 0.3125,0.30859 0.3711,0.30859 0.5586,0.37109 0.92969,2.17188 1.05469,3.85156 -0.0625,5.03125 -2.10547,2.29688 -4.21485,0.30859 -4.77344,-0.125 -0.86719,-0.87109 -1.85937,-2.05078 -4.21484,-6.76953 -0.5586,-1.11719 -0.80469,-1.67578 -1.36328,-2.23438 -1.30079,-1.17968 -3.28516,-1.24218 -4.58594,0.1836 -2.54297,2.73437 0.67969,7.70312 0.86719,7.94922 0.37109,0.25 0.61718,0 0.67968,-0.0625 0.3125,-0.3086 0.1875,-0.3711 -0.12109,-0.92969 -1.92188,-3.29297 -1.85938,-5.27734 -0.87109,-6.33594 0.25,-0.24609 0.74609,-0.67969 1.61328,0.1875 0.74218,0.6211 1.23828,1.80078 1.55078,2.42188 2.23047,4.47265 3.22265,6.02343 4.40234,7.07812 2.60156,2.48438 5.32813,1.49219 7.375,-0.68359 0.4961,-0.4961 1.73438,-1.85938 0.74219,-4.90235 2.60547,0.92969 4.65234,-0.87109 5.45703,-1.74218 1.98438,-2.17188 1.42578,-5.15235 0.37109,-7.51172 -1.36328,-3.10547 -4.33984,-7.63672 -5.70312,-8.94141 -1.60938,-1.49219 -2.78906,-1.11719 -3.22266,-0.62109 -0.68359,0.74609 -0.62109,2.10937 0,2.73047 0.3711,0.3125 0.74219,0.3125 1.17578,0.3125 0.6211,0 2.04688,-0.0625 3.41016,1.24218 0.99219,0.92969 3.03906,4.40625 3.84375,6.58204 0.86719,2.10937 0.86719,4.09765 -0.43359,5.52734 -1.23828,1.36328 -2.85157,1.30078 -4.52344,-0.25 -0.80859,-0.74609 -1.48828,-1.73828 -1.80078,-2.23438 z m 0,0"
     id="path86" /><path
     style="fill:#000000;fill-opacity:1;fill-rule:nonzero;stroke:none"
     d="m 153.57955,331.86149 c 0.125,0.30859 0.49609,0.86719 0.55859,0.92969 0.43359,0.43359 0.99219,0.3125 1.23828,-0.0625 0.37109,-0.3086 0.43359,-0.92969 0.37109,-1.17969 -0.12109,-0.2461 -0.61718,-1.05469 -0.92968,-1.61328 -0.3711,-0.4336 -0.99219,-1.49219 -1.36328,-2.11328 -0.4336,-0.4961 -0.74219,-1.05469 -1.05469,-1.55079 -0.67969,-1.05468 -0.74219,-1.17968 -1.05078,-2.60937 -0.3125,-1.30078 -0.4961,-3.22656 0.92968,-4.78125 1.11329,-1.17969 2.16797,-0.18359 2.53907,0.1875 1.17968,1.05469 2.66797,4.03516 3.22656,5.15234 0.30859,0.8086 0.43359,0.9961 0.80469,1.36719 1.11328,0.99609 2.53906,0.74609 3.53125,-0.30859 1.85937,-1.98828 -0.0586,-5.52735 -0.3711,-5.83985 -0.24609,-0.24609 -0.55859,0 -0.55859,0.0625 -0.24609,0.3125 -0.18359,0.4375 0,0.8086 1.17969,1.92578 1.17969,3.60156 0.43359,4.41015 -0.43359,0.4336 -0.74218,0.1836 -1.23828,-0.1875 -0.43359,-0.43359 -0.62109,-0.74609 -1.17578,-1.98828 -0.375,-0.86719 -1.73828,-3.72656 -2.91406,-4.78125 -1.98438,-1.86328 -3.78125,-0.49609 -4.71094,0.5586 -1.61328,1.67578 -1.61328,3.72656 -1.36719,5.15625 -1.54687,-1.24219 -3.09765,-0.4375 -3.90234,0.43359 -0.80859,0.87109 -0.62109,1.92578 -0.43359,2.60937 0.37109,1.17969 1.23828,2.54297 1.36328,2.60547 0.24609,0.25 0.49609,-0.0625 0.61718,-0.125 0.25,-0.30859 0.1875,-0.37109 -0.18359,-0.99218 -0.92969,-1.42579 -1.55078,-2.73047 -0.86719,-3.53907 0.55469,-0.55859 1.11328,-0.25 1.67188,0.25 0.37109,0.3711 0.92969,1.24219 1.36328,1.86328 0.43359,0.61719 1.05469,1.67579 1.42578,2.23438 z m 0,0"
     id="path88" /><path
     style="fill:none;stroke:#909090;stroke-width:3.16474;stroke-linecap:butt;stroke-linejoin:miter;stroke-miterlimit:10;stroke-opacity:1"
     d="m 300.66939,192.85368 h 115.6914"
     id="path90" /><path
     style="fill:none;stroke:#909090;stroke-width:2.53176;stroke-linecap:round;stroke-linejoin:round;stroke-miterlimit:10;stroke-opacity:1"
     d="m 410.20845,184.62712 c 0.50781,3.08984 6.15234,7.71484 7.69922,8.22656 -1.54688,0.51171 -7.19141,5.15625 -7.69922,8.24218"
     id="path92" /><path
     style="fill:#000000;fill-opacity:1;fill-rule:nonzero;stroke:none"
     d="m 452.46236,190.57633 c 0,-4.16015 -2.73047,-6.70703 -6.32422,-6.70703 -5.26953,0 -10.60156,5.65234 -10.60156,11.24219 0,3.91015 2.66797,6.70312 6.32422,6.70312 5.26953,0 10.60156,-5.46093 10.60156,-11.23828 z m -10.53906,10.3711 c -1.73829,0 -3.47266,-1.24219 -3.47266,-4.34766 0,-1.92578 1.05469,-6.21094 2.29297,-8.19531 1.98437,-3.04297 4.27734,-3.66407 5.39453,-3.66407 2.29297,0 3.47266,1.92579 3.47266,4.28516 0,1.55078 -0.8086,5.71094 -2.29688,8.25781 -1.42578,2.29688 -3.59375,3.66407 -5.39062,3.66407 z m 0,0"
     id="path94" /><path
     style="fill:none;stroke:#000000;stroke-width:1.5824;stroke-linecap:butt;stroke-linejoin:miter;stroke-miterlimit:10;stroke-dasharray:6.3296, 3.1648;stroke-dashoffset:0;stroke-opacity:1"
     d="m 250.22991,242.52376 0.12208,-99.20246"
     id="path96" /><path
     style="fill:#000000;fill-opacity:1;fill-rule:nonzero;stroke:none"
     d="m 27.630325,318.42789 c 0,-1.11718 -0.929688,-2.11328 -2.046876,-2.11328 -1.175781,0 -2.105468,0.9961 -2.105468,2.11328 0,1.17969 0.929687,2.10938 2.105468,2.10938 1.117188,0 2.046876,-0.92969 2.046876,-2.10938 z m 0,0"
     id="path98" /><path
     style="fill:#000000;fill-opacity:1;fill-rule:nonzero;stroke:none"
     d="m 27.630325,334.26383 c 0,-1.11719 -0.929688,-2.10937 -2.046876,-2.10937 -1.175781,0 -2.105468,0.99218 -2.105468,2.10937 0,1.17969 0.929687,2.11328 2.105468,2.11328 1.117188,0 2.046876,-0.93359 2.046876,-2.11328 z m 0,0"
     id="path100" /><path
     style="fill:#000000;fill-opacity:1;fill-rule:nonzero;stroke:none"
     d="m 27.630325,350.09977 c 0,-1.11719 -0.929688,-2.10938 -2.046876,-2.10938 -1.175781,0 -2.105468,0.99219 -2.105468,2.10938 0,1.17969 0.929687,2.11328 2.105468,2.11328 1.117188,0 2.046876,-0.93359 2.046876,-2.11328 z m 0,0"
     id="path102" /><g
     id="text4183"
     style="font-style:normal;font-weight:normal;font-size:32px;line-height:125%;font-family:sans-serif;letter-spacing:0px;word-spacing:0px;fill:#000000;fill-opacity:1;stroke:none;stroke-width:1px;stroke-linecap:butt;stroke-linejoin:miter;stroke-opacity:1"
     transform="translate(-22.486863,-22.525229)"><path
       id="path4187"
       style="font-style:normal;font-variant:normal;font-weight:normal;font-stretch:normal;font-size:20px;font-family:'Times New Roman';-inkscape-font-specification:'Times New Roman, '"
       d="m 72.186592,35.065231 h 10.537109 v 0.800782 H 72.186592 Z m 0,3.183594 h 10.537109 v 0.800781 H 72.186592 Z" /></g><path
     style="fill:#000000;fill-opacity:1;fill-rule:nonzero;stroke:none"
     d="m 66.002623,7.338176 c 0,-0.562427 0,-0.562427 -0.609544,-0.562427 C 64.038537,8.08612 62.168681,8.08612 61.329454,8.08612 v 0.750884 c 0.465255,0 1.869857,0 2.988825,-0.562426 v 10.624318 c 0,0.70377 0,0.983509 -2.055369,0.983509 h -0.795058 v 0.750892 c 0.373972,0 2.944656,-0.09423 3.692599,-0.09423 0.653714,0 3.271513,0.09423 3.739713,0.09423 v -0.750892 h -0.795057 c -2.102484,0 -2.102484,-0.279739 -2.102484,-0.983509 z m 0,0"
     id="path26-6" /><g
     style="fill:#000000;stroke-width:13.5951"
     id="g1"
     transform="matrix(-0.17239795,0,0,0.17239795,296.09103,166.89012)"><path
       d="M 24.28,67.494 A 3.999,3.999 0 0 1 28.285,63.5 H 83.78 c 8.837,0 19.659,6.169 24.165,13.767 l 50.391,84.966 c 4.51,7.604 15.33,13.767 24.157,13.767 H 227.7 a 4.002,4.002 0 0 1 4.005,4.007 v 8.986 A 4.004,4.004 0 0 1 227.707,193 h -58.708 c -8.835,0 -19.602,-6.196 -24.04,-13.828 L 95.32,93.828 C 90.88,86.19 80.114,80 71.28,80 h -43 c -2.21,0 -4,-1.797 -4,-3.994 z"
       fill-rule="evenodd"
       id="path1"
       style="stroke-width:13.5951" /></g></svg>
