<?xml version="1.0" encoding="UTF-8"?>
<svg xmlns="http://www.w3.org/2000/svg" xmlns:xlink="http://www.w3.org/1999/xlink" width="120px" height="35px" viewBox="0 0 118 35" version="1.1">
<defs>
<linearGradient id="linear0" gradientUnits="userSpaceOnUse" x1="26.65" y1="20.6" x2="135.699997" y2="114.400002" gradientTransform="matrix(0.136574,0,0,0.138056,-2.282304,-1.28941)">
<stop offset="0" style="stop-color:rgb(35.294118%,62.352941%,83.137255%);stop-opacity:1;"/>
<stop offset="1" style="stop-color:rgb(18.823529%,41.176471%,59.607843%);stop-opacity:1;"/>
</linearGradient>
<linearGradient id="linear1" gradientUnits="userSpaceOnUse" x1="151" y1="192.399994" x2="112" y2="137.300003" gradientTransform="matrix(0.136574,0,0,0.138056,-2.282304,-1.28941)">
<stop offset="0" style="stop-color:rgb(100%,83.137255%,23.137255%);stop-opacity:1;"/>
<stop offset="1" style="stop-color:rgb(100%,90.980392%,45.098039%);stop-opacity:1;"/>
</linearGradient>
<filter id="alpha" filterUnits="objectBoundingBox" x="0%" y="0%" width="100%" height="100%">
  <feColorMatrix type="matrix" in="SourceGraphic" values="0 0 0 0 1 0 0 0 0 1 0 0 0 0 1 0 0 0 1 0"/>
</filter>
<mask id="mask0">
  <g filter="url(#alpha)">
<rect x="0" y="0" width="118" height="35" style="fill:rgb(0%,0%,0%);fill-opacity:0.443137;stroke:none;"/>
  </g>
</mask>
<radialGradient id="radial0" gradientUnits="userSpaceOnUse" cx="61.52" cy="132.300003" fx="61.52" fy="132.300003" r="29.040001" gradientTransform="matrix(0.00000000424742,-0.0583177,0.256128,0.0000000921593,-18.958144,36.176327)">
<stop offset="0" style="stop-color:rgb(72.156863%,72.156863%,72.156863%);stop-opacity:0.498039;"/>
<stop offset="1" style="stop-color:rgb(49.803922%,49.803922%,49.803922%);stop-opacity:0;"/>
</radialGradient>
<clipPath id="clip1">
  <rect x="0" y="0" width="118" height="35"/>
</clipPath>
<g id="surface5" clip-path="url(#clip1)">
<path style=" stroke:none;fill-rule:nonzero;fill:url(#radial0);" d="M 23.640625 32.59375 C 23.640625 33.53125 19.734375 34.289062 14.917969 34.289062 C 10.097656 34.289062 6.191406 33.53125 6.191406 32.59375 C 6.191406 31.660156 10.097656 30.902344 14.917969 30.902344 C 19.734375 30.902344 23.640625 31.660156 23.640625 32.59375 Z M 23.640625 32.59375 "/>
</g>
</defs>
<g id="surface1">
<path style=" stroke:none;fill-rule:nonzero;fill:rgb(39.215687%,39.215687%,39.215687%);fill-opacity:1;" d="M 44.820312 15.050781 C 44.820312 11.511719 43.8125 9.695312 41.796875 9.597656 C 40.992188 9.558594 40.210938 9.6875 39.449219 9.980469 C 38.839844 10.199219 38.429688 10.414062 38.214844 10.632812 L 38.214844 19.082031 C 39.503906 19.890625 40.648438 20.269531 41.648438 20.210938 C 43.761719 20.070312 44.820312 18.351562 44.820312 15.050781 Z M 47.308594 15.199219 C 47.308594 16.996094 46.886719 18.492188 46.039062 19.675781 C 45.09375 21.019531 43.785156 21.710938 42.113281 21.75 C 40.851562 21.789062 39.550781 21.394531 38.214844 20.566406 L 38.214844 28.242188 L 36.050781 27.46875 L 36.050781 10.425781 C 36.40625 9.992188 36.863281 9.617188 37.417969 9.300781 C 38.707031 8.546875 40.269531 8.164062 42.109375 8.144531 L 42.140625 8.175781 C 43.824219 8.152344 45.121094 8.84375 46.03125 10.246094 C 46.882812 11.535156 47.308594 13.183594 47.308594 15.199219 Z M 47.308594 15.199219 "/>
<path style=" stroke:none;fill-rule:nonzero;fill:rgb(39.215687%,39.215687%,39.215687%);fill-opacity:1;" d="M 60.53125 20.238281 C 60.53125 22.652344 60.289062 24.320312 59.804688 25.25 C 59.320312 26.179688 58.398438 26.921875 57.035156 27.472656 C 55.929688 27.910156 54.734375 28.144531 53.453125 28.1875 L 53.09375 26.820312 C 54.398438 26.644531 55.316406 26.464844 55.851562 26.289062 C 56.898438 25.933594 57.617188 25.386719 58.011719 24.660156 C 58.328125 24.0625 58.484375 22.929688 58.484375 21.25 L 58.484375 20.683594 C 57.007812 21.359375 55.457031 21.691406 53.835938 21.691406 C 52.773438 21.691406 51.832031 21.359375 51.023438 20.683594 C 50.113281 19.953125 49.660156 19.023438 49.660156 17.898438 L 49.660156 8.886719 L 51.824219 8.144531 L 51.824219 17.214844 C 51.824219 18.183594 52.136719 18.929688 52.757812 19.457031 C 53.382812 19.980469 54.195312 20.230469 55.183594 20.210938 C 56.175781 20.191406 57.238281 19.804688 58.367188 19.054688 L 58.367188 8.472656 L 60.53125 8.472656 Z M 60.53125 20.238281 "/>
<path style=" stroke:none;fill-rule:nonzero;fill:rgb(39.215687%,39.215687%,39.215687%);fill-opacity:1;" d="M 68.980469 21.632812 C 68.722656 21.652344 68.484375 21.664062 68.265625 21.664062 C 67.042969 21.664062 66.089844 21.371094 65.410156 20.785156 C 64.730469 20.199219 64.390625 19.394531 64.390625 18.363281 L 64.390625 9.832031 L 62.90625 9.832031 L 62.90625 8.472656 L 64.390625 8.472656 L 64.390625 4.855469 L 66.550781 4.085938 L 66.550781 8.472656 L 68.980469 8.472656 L 68.980469 9.835938 L 66.550781 9.835938 L 66.550781 18.304688 C 66.550781 19.117188 66.765625 19.691406 67.203125 20.03125 C 67.578125 20.308594 68.171875 20.464844 68.980469 20.503906 Z M 68.980469 21.632812 "/>
<path style=" stroke:none;fill-rule:nonzero;fill:rgb(39.215687%,39.215687%,39.215687%);fill-opacity:1;" d="M 82.066406 21.453125 L 79.902344 21.453125 L 79.902344 13.097656 C 79.902344 12.246094 79.703125 11.511719 79.308594 10.902344 C 78.851562 10.210938 78.21875 9.863281 77.402344 9.863281 C 76.410156 9.863281 75.171875 10.386719 73.683594 11.433594 L 73.683594 21.453125 L 71.519531 21.453125 L 71.519531 1.476562 L 73.683594 0.792969 L 73.683594 9.890625 C 75.066406 8.886719 76.574219 8.378906 78.21875 8.378906 C 79.363281 8.378906 80.289062 8.765625 81 9.535156 C 81.710938 10.308594 82.066406 11.265625 82.066406 12.414062 Z M 82.066406 21.453125 "/>
<path style=" stroke:none;fill-rule:nonzero;fill:rgb(39.215687%,39.215687%,39.215687%);fill-opacity:1;" d="M 93.574219 14.710938 C 93.574219 13.351562 93.316406 12.230469 92.804688 11.339844 C 92.191406 10.257812 91.242188 9.6875 89.960938 9.628906 C 87.589844 9.765625 86.40625 11.464844 86.40625 14.726562 C 86.40625 16.222656 86.652344 17.472656 87.148438 18.472656 C 87.78125 19.75 88.734375 20.378906 90.003906 20.359375 C 92.382812 20.339844 93.574219 18.457031 93.574219 14.710938 Z M 95.945312 14.726562 C 95.945312 16.660156 95.449219 18.273438 94.460938 19.558594 C 93.375 21 91.875 21.722656 89.960938 21.722656 C 88.0625 21.722656 86.582031 21 85.515625 19.558594 C 84.546875 18.273438 84.0625 16.660156 84.0625 14.726562 C 84.0625 12.90625 84.585938 11.378906 85.632812 10.128906 C 86.738281 8.808594 88.191406 8.144531 89.988281 8.144531 C 91.78125 8.144531 93.246094 8.808594 94.371094 10.128906 C 95.417969 11.375 95.941406 12.90625 95.941406 14.726562 Z M 95.945312 14.726562 "/>
<path style=" stroke:none;fill-rule:nonzero;fill:rgb(39.215687%,39.215687%,39.215687%);fill-opacity:1;" d="M 108.335938 21.453125 L 106.171875 21.453125 L 106.171875 12.621094 C 106.171875 11.652344 105.882812 10.898438 105.300781 10.351562 C 104.71875 9.808594 103.941406 9.546875 102.972656 9.566406 C 101.945312 9.585938 100.96875 9.921875 100.039062 10.574219 L 100.039062 21.453125 L 97.878906 21.453125 L 97.878906 10.308594 C 99.121094 9.402344 100.269531 8.808594 101.3125 8.53125 C 102.300781 8.273438 103.171875 8.144531 103.921875 8.144531 C 104.433594 8.144531 104.917969 8.195312 105.371094 8.292969 C 106.222656 8.492188 106.914062 8.855469 107.445312 9.390625 C 108.039062 9.984375 108.335938 10.695312 108.335938 11.527344 Z M 108.335938 21.453125 "/>
<path style=" stroke:none;fill-rule:nonzero;fill:url(#linear0);" d="M 14.691406 1.554688 C 13.578125 1.558594 12.515625 1.65625 11.582031 1.820312 C 8.824219 2.308594 8.324219 3.328125 8.324219 5.210938 L 8.324219 7.691406 L 14.835938 7.691406 L 14.835938 8.519531 L 5.882812 8.519531 C 3.992188 8.519531 2.332031 9.660156 1.816406 11.824219 C 1.21875 14.304688 1.191406 15.855469 1.816406 18.449219 C 2.277344 20.375 3.382812 21.75 5.277344 21.75 L 7.515625 21.75 L 7.515625 18.773438 C 7.515625 16.621094 9.375 14.722656 11.582031 14.722656 L 18.082031 14.722656 C 19.894531 14.722656 21.339844 13.230469 21.339844 11.414062 L 21.339844 5.207031 C 21.339844 3.441406 19.851562 2.117188 18.082031 1.820312 C 16.964844 1.632812 15.804688 1.550781 14.691406 1.554688 Z M 11.171875 3.554688 C 11.84375 3.554688 12.394531 4.113281 12.394531 4.796875 C 12.394531 5.484375 11.84375 6.035156 11.171875 6.035156 C 10.496094 6.035156 9.949219 5.484375 9.949219 4.796875 C 9.949219 4.113281 10.496094 3.554688 11.171875 3.554688 Z M 11.171875 3.554688 "/>
<path style=" stroke:none;fill-rule:nonzero;fill:url(#linear1);" d="M 22.152344 8.519531 L 22.152344 11.414062 C 22.152344 13.65625 20.25 15.546875 18.082031 15.546875 L 11.582031 15.546875 C 9.800781 15.546875 8.324219 17.070312 8.324219 18.855469 L 8.324219 25.0625 C 8.324219 26.828125 9.859375 27.867188 11.582031 28.371094 C 13.640625 28.980469 15.621094 29.089844 18.082031 28.371094 C 19.722656 27.898438 21.339844 26.941406 21.339844 25.0625 L 21.339844 22.578125 L 14.835938 22.578125 L 14.835938 21.75 L 24.59375 21.75 C 26.488281 21.75 27.195312 20.429688 27.851562 18.445312 C 28.53125 16.40625 28.503906 14.441406 27.851562 11.824219 C 27.382812 9.9375 26.492188 8.519531 24.59375 8.519531 Z M 18.492188 24.234375 C 19.167969 24.234375 19.714844 24.789062 19.714844 25.472656 C 19.714844 26.160156 19.167969 26.71875 18.492188 26.71875 C 17.820312 26.71875 17.273438 26.160156 17.273438 25.472656 C 17.273438 24.789062 17.820312 24.234375 18.492188 24.234375 Z M 18.492188 24.234375 "/>
<path style=" stroke:none;fill-rule:nonzero;fill:rgb(39.215687%,39.215687%,39.215687%);fill-opacity:1;" d="M 112.5625 6.539062 L 112.941406 6.539062 L 112.941406 4.160156 L 113.839844 4.160156 L 113.839844 3.875 L 111.664062 3.875 L 111.664062 4.160156 L 112.5625 4.160156 L 112.5625 6.539062 M 114.175781 6.539062 L 114.5 6.539062 L 114.5 4.367188 L 115.203125 6.539062 L 115.5625 6.539062 L 116.296875 4.375 L 116.296875 6.539062 L 116.648438 6.539062 L 116.648438 3.875 L 116.183594 3.875 L 115.382812 6.160156 L 114.699219 3.875 L 114.175781 3.875 L 114.175781 6.539062 "/>
<use xlink:href="#surface5" mask="url(#mask0)"/>
</g>
</svg>
