<?xml version="1.0" encoding="UTF-8" standalone="no"?>
<!-- Created with Inkscape (http://www.inkscape.org/) -->

<svg
   width="423.04178mm"
   height="281.5715mm"
   viewBox="0 0 423.04178 281.57151"
   version="1.1"
   id="svg1"
   inkscape:version="1.4.2 (ebf0e940d0, 2025-05-08)"
   sodipodi:docname="pytorch-workflow.svg"
   xmlns:inkscape="http://www.inkscape.org/namespaces/inkscape"
   xmlns:sodipodi="http://sodipodi.sourceforge.net/DTD/sodipodi-0.dtd"
   xmlns="http://www.w3.org/2000/svg"
   xmlns:svg="http://www.w3.org/2000/svg">
  <sodipodi:namedview
     id="namedview1"
     pagecolor="#ffffff"
     bordercolor="#000000"
     borderopacity="0.25"
     inkscape:showpageshadow="2"
     inkscape:pageopacity="0.0"
     inkscape:pagecheckerboard="0"
     inkscape:deskcolor="#d1d1d1"
     inkscape:document-units="mm"
     inkscape:zoom="0.37483749"
     inkscape:cx="685.63046"
     inkscape:cy="325.47438"
     inkscape:window-width="1876"
     inkscape:window-height="1005"
     inkscape:window-x="0"
     inkscape:window-y="0"
     inkscape:window-maximized="1"
     inkscape:current-layer="layer1" />
  <defs
     id="defs1">
    <inkscape:path-effect
       effect="bspline"
       id="path-effect68"
       is_visible="true"
       lpeversion="1.3"
       weight="33.333333"
       steps="2"
       helper_size="0"
       apply_no_weight="true"
       apply_with_weight="true"
       only_selected="false"
       uniform="false" />
    <inkscape:path-effect
       effect="bspline"
       id="path-effect67"
       is_visible="true"
       lpeversion="1.3"
       weight="33.333333"
       steps="2"
       helper_size="0"
       apply_no_weight="true"
       apply_with_weight="true"
       only_selected="false"
       uniform="false" />
    <inkscape:path-effect
       effect="bspline"
       id="path-effect66"
       is_visible="true"
       lpeversion="1.3"
       weight="33.333333"
       steps="2"
       helper_size="0"
       apply_no_weight="true"
       apply_with_weight="true"
       only_selected="false"
       uniform="false" />
    <inkscape:path-effect
       effect="bspline"
       id="path-effect65"
       is_visible="true"
       lpeversion="1.3"
       weight="33.333333"
       steps="2"
       helper_size="0"
       apply_no_weight="true"
       apply_with_weight="true"
       only_selected="false"
       uniform="false" />
    <inkscape:path-effect
       effect="bspline"
       id="path-effect64"
       is_visible="true"
       lpeversion="1.3"
       weight="33.333333"
       steps="2"
       helper_size="0"
       apply_no_weight="true"
       apply_with_weight="true"
       only_selected="false"
       uniform="false" />
    <inkscape:path-effect
       effect="bspline"
       id="path-effect63"
       is_visible="true"
       lpeversion="1.3"
       weight="33.333333"
       steps="2"
       helper_size="0"
       apply_no_weight="true"
       apply_with_weight="true"
       only_selected="false"
       uniform="false" />
    <inkscape:path-effect
       effect="bspline"
       id="path-effect62"
       is_visible="true"
       lpeversion="1.3"
       weight="33.333333"
       steps="2"
       helper_size="0"
       apply_no_weight="true"
       apply_with_weight="true"
       only_selected="false"
       uniform="false" />
    <inkscape:path-effect
       effect="bspline"
       id="path-effect61"
       is_visible="true"
       lpeversion="1.3"
       weight="33.333333"
       steps="2"
       helper_size="0"
       apply_no_weight="true"
       apply_with_weight="true"
       only_selected="false"
       uniform="false" />
    <inkscape:path-effect
       effect="bspline"
       id="path-effect60"
       is_visible="true"
       lpeversion="1.3"
       weight="33.333333"
       steps="2"
       helper_size="0"
       apply_no_weight="true"
       apply_with_weight="true"
       only_selected="false"
       uniform="false" />
    <inkscape:path-effect
       effect="bspline"
       id="path-effect59"
       is_visible="true"
       lpeversion="1.3"
       weight="33.333333"
       steps="2"
       helper_size="0"
       apply_no_weight="true"
       apply_with_weight="true"
       only_selected="false"
       uniform="false" />
    <inkscape:path-effect
       effect="bspline"
       id="path-effect58"
       is_visible="true"
       lpeversion="1.3"
       weight="33.333333"
       steps="2"
       helper_size="0"
       apply_no_weight="true"
       apply_with_weight="true"
       only_selected="false"
       uniform="false" />
    <inkscape:path-effect
       effect="bspline"
       id="path-effect57"
       is_visible="true"
       lpeversion="1.3"
       weight="33.333333"
       steps="2"
       helper_size="0"
       apply_no_weight="true"
       apply_with_weight="true"
       only_selected="false"
       uniform="false" />
    <inkscape:path-effect
       effect="bspline"
       id="path-effect56"
       is_visible="true"
       lpeversion="1.3"
       weight="33.333333"
       steps="2"
       helper_size="0"
       apply_no_weight="true"
       apply_with_weight="true"
       only_selected="false"
       uniform="false" />
    <inkscape:path-effect
       effect="bspline"
       id="path-effect55"
       is_visible="true"
       lpeversion="1.3"
       weight="33.333333"
       steps="2"
       helper_size="0"
       apply_no_weight="true"
       apply_with_weight="true"
       only_selected="false"
       uniform="false" />
    <inkscape:path-effect
       effect="bspline"
       id="path-effect54"
       is_visible="true"
       lpeversion="1.3"
       weight="33.333333"
       steps="2"
       helper_size="0"
       apply_no_weight="true"
       apply_with_weight="true"
       only_selected="false"
       uniform="false" />
    <inkscape:path-effect
       effect="bspline"
       id="path-effect53"
       is_visible="true"
       lpeversion="1.3"
       weight="33.333333"
       steps="2"
       helper_size="0"
       apply_no_weight="true"
       apply_with_weight="true"
       only_selected="false"
       uniform="false" />
    <inkscape:path-effect
       effect="bspline"
       id="path-effect52"
       is_visible="true"
       lpeversion="1.3"
       weight="33.333333"
       steps="2"
       helper_size="0"
       apply_no_weight="true"
       apply_with_weight="true"
       only_selected="false"
       uniform="false" />
    <inkscape:path-effect
       effect="bspline"
       id="path-effect51"
       is_visible="true"
       lpeversion="1.3"
       weight="33.333333"
       steps="2"
       helper_size="0"
       apply_no_weight="true"
       apply_with_weight="true"
       only_selected="false"
       uniform="false" />
    <inkscape:path-effect
       effect="bspline"
       id="path-effect50"
       is_visible="true"
       lpeversion="1.3"
       weight="33.333333"
       steps="2"
       helper_size="0"
       apply_no_weight="true"
       apply_with_weight="true"
       only_selected="false"
       uniform="false" />
    <inkscape:path-effect
       effect="bspline"
       id="path-effect49"
       is_visible="true"
       lpeversion="1.3"
       weight="33.333333"
       steps="2"
       helper_size="0"
       apply_no_weight="true"
       apply_with_weight="true"
       only_selected="false"
       uniform="false" />
    <inkscape:path-effect
       effect="bspline"
       id="path-effect48"
       is_visible="true"
       lpeversion="1.3"
       weight="33.333333"
       steps="2"
       helper_size="0"
       apply_no_weight="true"
       apply_with_weight="true"
       only_selected="false"
       uniform="false" />
    <inkscape:path-effect
       effect="bspline"
       id="path-effect41"
       is_visible="true"
       lpeversion="1.3"
       weight="33.333333"
       steps="2"
       helper_size="0"
       apply_no_weight="true"
       apply_with_weight="true"
       only_selected="false"
       uniform="false" />
    <inkscape:path-effect
       effect="spiro"
       id="path-effect38"
       is_visible="true"
       lpeversion="1" />
    <inkscape:path-effect
       effect="bspline"
       id="path-effect37"
       is_visible="true"
       lpeversion="1.3"
       weight="33.333333"
       steps="2"
       helper_size="0"
       apply_no_weight="true"
       apply_with_weight="true"
       only_selected="false"
       uniform="false" />
    <inkscape:path-effect
       effect="powerstroke"
       message=""
       id="path-effect36"
       is_visible="true"
       lpeversion="1.3"
       scale_width="1"
       interpolator_type="CubicBezierJohan"
       interpolator_beta="0.2"
       start_linecap_type="zerowidth"
       end_linecap_type="zerowidth"
       offset_points="0,4.9921384"
       linejoin_type="extrp_arc"
       miter_limit="4"
       not_jump="false"
       sort_points="true" />
    <inkscape:path-effect
       effect="powerstroke"
       message=""
       id="path-effect34"
       is_visible="true"
       lpeversion="1.3"
       scale_width="1"
       interpolator_type="CubicBezierJohan"
       interpolator_beta="0.2"
       start_linecap_type="zerowidth"
       end_linecap_type="zerowidth"
       offset_points="0,4.9921384"
       linejoin_type="extrp_arc"
       miter_limit="4"
       not_jump="false"
       sort_points="true" />
    <inkscape:path-effect
       effect="fill_between_many"
       method="bsplinespiro"
       autoreverse="false"
       close="false"
       join="false"
       linkedpaths="#path34,0,1"
       id="path-effect35"
       is_visible="true"
       lpeversion="0" />
  </defs>
  <g
     inkscape:label="Layer 1"
     inkscape:groupmode="layer"
     id="layer1"
     transform="translate(164.36438,-85.324692)"
     style="display:inline">
    <path
       id="rect3-6-6"
       style="fill:#d5e5ff;stroke:#000000;stroke-miterlimit:12"
       d="m 165.96199,141.15346 h 74.29688 v 43.59375 h -74.29688 z" />
    <path
       id="rect3-6-6-4"
       style="fill:#d5e5ff;stroke:#000000;stroke-miterlimit:12"
       d="m 165.96199,196.48222 h 74.29688 v 43.59375 h -74.29688 z" />
    <path
       id="rect3-6"
       style="fill:#d5e5ff;stroke:#000000;stroke-miterlimit:12"
       d="m 165.96199,85.824692 h 74.29688 v 43.593748 h -74.29688 z" />
    <g
       id="text4-1-9-7"
       style="font-size:14.1111px;font-family:'DejaVu Serif';-inkscape-font-specification:'DejaVu Serif, Normal';text-align:center;text-anchor:middle;opacity:0.75;fill:#3e3e3e;stroke-width:0.499999;stroke-miterlimit:12;stroke-dasharray:1.5, 1.5"
       aria-label="Training&#10;dataset"
       transform="translate(3.51105)">
      <path
         style="stroke-width:0.5"
         d="m 172.0283,214.55151 v -0.73036 h 1.31603 v -8.73675 h -3.02479 v 1.60541 h -0.8475 v -2.42534 h 9.13639 v 2.42534 h -0.84749 v -1.60541 h -3.0248 v 8.73675 h 1.31603 v 0.73036 z m 13.46342,-7.33804 v 1.83279 h -0.73036 q -0.0344,-0.54433 -0.30316,-0.81305 -0.26872,-0.26871 -0.78548,-0.26871 -0.93707,0 -1.44005,0.64767 -0.4961,0.64768 -0.4961,1.86035 v 3.34863 h 1.46761 v 0.73036 h -3.87917 v -0.73036 h 1.14377 v -5.87043 h -1.21267 v -0.72347 h 2.48046 v 1.30224 q 0.37207,-0.76481 0.95774,-1.12999 0.58566,-0.37207 1.42627,-0.37207 0.31006,0 0.64767,0.0482 0.34451,0.0482 0.72347,0.13781 z m 5.61551,5.03672 v -1.55029 h -1.63298 q -0.94395,0 -1.4056,0.40652 -0.46164,0.40652 -0.46164,1.24712 0,0.76482 0.46853,1.21268 0.46854,0.44786 1.2678,0.44786 0.79237,0 1.27468,-0.4892 0.48921,-0.48921 0.48921,-1.27469 z m 1.26779,-2.27376 v 3.84472 h 1.12999 v 0.73036 h -2.39778 v -0.79237 q -0.42031,0.50988 -0.97152,0.75103 -0.55122,0.24116 -1.28847,0.24116 -1.21956,0 -1.93614,-0.64768 -0.71658,-0.64768 -0.71658,-1.75011 0,-1.13688 0.81994,-1.76388 0.81993,-0.62701 2.3151,-0.62701 h 1.77767 v -0.50298 q 0,-0.83372 -0.50988,-1.28847 -0.50298,-0.46164 -1.41938,-0.46164 -0.75792,0 -1.20578,0.34451 -0.44786,0.34451 -0.5581,1.01975 h -0.65457 v -1.48139 q 0.66146,-0.2825 1.28157,-0.42031 0.62701,-0.14469 1.21957,-0.14469 1.52273,0 2.3151,0.75792 0.79926,0.75103 0.79926,2.19108 z m 2.90077,-5.02294 q 0,-0.31695 0.22738,-0.55122 0.23426,-0.23427 0.5581,-0.23427 0.31695,0 0.54433,0.23427 0.23426,0.23427 0.23426,0.55122 0,0.32383 -0.22737,0.55121 -0.22738,0.22738 -0.55122,0.22738 -0.32384,0 -0.5581,-0.22738 -0.22738,-0.22738 -0.22738,-0.55121 z m 1.61919,8.86766 h 1.1989 v 0.73036 h -3.67936 v -0.73036 h 1.21267 v -5.85665 h -1.21267 v -0.73725 h 2.48046 z m 2.10151,0.73036 v -0.73036 h 1.14377 v -5.85665 h -1.21267 v -0.73725 h 2.48046 v 1.30224 q 0.3514,-0.74414 0.90951,-1.1231 0.56499,-0.37896 1.30913,-0.37896 1.21268,0 1.78456,0.69591 0.57189,0.69591 0.57189,2.17041 v 3.9274 h 1.12999 v 0.73036 h -3.50022 v -0.73036 h 1.09554 v -3.52777 q 0,-1.34359 -0.33073,-1.83968 -0.33072,-0.50298 -1.16444,-0.50298 -0.88194,0 -1.34358,0.64767 -0.46165,0.64079 -0.46165,1.87413 v 3.34863 h 1.10243 v 0.73036 z m 9.88053,-9.59802 q 0,-0.31695 0.22737,-0.55122 0.23427,-0.23427 0.55811,-0.23427 0.31695,0 0.54432,0.23427 0.23427,0.23427 0.23427,0.55122 0,0.32383 -0.22738,0.55121 -0.22737,0.22738 -0.55121,0.22738 -0.32384,0 -0.55811,-0.22738 -0.22737,-0.22738 -0.22737,-0.55121 z m 1.61919,8.86766 h 1.19889 v 0.73036 h -3.67936 v -0.73036 h 1.21268 v -5.85665 h -1.21268 v -0.73725 h 2.48047 z m 2.1015,0.73036 v -0.73036 h 1.14377 v -5.85665 h -1.21267 v -0.73725 h 2.48047 v 1.30224 q 0.3514,-0.74414 0.9095,-1.1231 0.565,-0.37896 1.30914,-0.37896 1.21267,0 1.78456,0.69591 0.57188,0.69591 0.57188,2.17041 v 3.9274 h 1.12999 v 0.73036 h -3.50021 v -0.73036 h 1.09554 v -3.52777 q 0,-1.34359 -0.33073,-1.83968 -0.33073,-0.50298 -1.16444,-0.50298 -0.88195,0 -1.34359,0.64767 -0.46164,0.64079 -0.46164,1.87413 v 3.34863 h 1.10243 v 0.73036 z m 15.91634,-6.58701 v 6.42854 q 0,1.57785 -0.86817,2.43223 -0.86816,0.86128 -2.47357,0.86128 -0.72347,0 -1.38493,-0.13092 -0.66146,-0.13091 -1.2678,-0.39274 v -1.53651 h 0.66146 q 0.12403,0.71658 0.58567,1.04731 0.46164,0.33073 1.32291,0.33073 1.11621,0 1.63298,-0.6339 0.52365,-0.627 0.52365,-1.97748 v -0.9853 q -0.37207,0.68902 -0.95084,1.01975 -0.57189,0.32384 -1.41938,0.32384 -1.35048,0 -2.21175,-1.06798 -0.85438,-1.07487 -0.85438,-2.79742 0,-1.72254 0.85438,-2.79052 0.85438,-1.06798 2.21175,-1.06798 0.84749,0 1.41938,0.33073 0.57877,0.32384 0.95084,1.01286 v -1.14377 h 2.48047 v 0.73725 z m -1.2678,2.56315 q 0,-1.31603 -0.50987,-2.01194 -0.50299,-0.69591 -1.46761,-0.69591 -0.97841,0 -1.48139,0.7717 -0.4961,0.7717 -0.4961,2.29443 0,1.51585 0.4961,2.29444 0.50298,0.77859 1.48139,0.77859 0.96462,0 1.46761,-0.68902 0.50987,-0.69591 0.50987,-2.01883 z"
         id="path26" />
      <path
         style="stroke-width:0.5"
         d="m 180.74783,231.46003 h 1.21267 v 0.73036 h -2.48046 v -1.14377 q -0.37207,0.68902 -0.95085,1.01975 -0.57188,0.32383 -1.41938,0.32383 -1.35047,0 -2.21175,-1.06797 -0.85438,-1.07487 -0.85438,-2.79742 0,-1.72255 0.85438,-2.79053 0.85439,-1.06797 2.21175,-1.06797 0.8475,0 1.41938,0.33073 0.57878,0.32383 0.95085,1.01285 v -3.81027 h -1.1989 v -0.73036 h 2.46669 z m -1.26779,-2.57004 v -0.72347 q 0,-1.31602 -0.50988,-2.01193 -0.50298,-0.69591 -1.46761,-0.69591 -0.9784,0 -1.48139,0.7717 -0.49609,0.7717 -0.49609,2.29443 0,1.51584 0.49609,2.29443 0.50299,0.77859 1.48139,0.77859 0.96463,0 1.46761,-0.68902 0.50988,-0.6959 0.50988,-2.01882 z m 8.50938,0.99908 v -1.55029 h -1.63298 q -0.94395,0 -1.4056,0.40652 -0.46164,0.40652 -0.46164,1.24712 0,0.76481 0.46853,1.21267 0.46854,0.44786 1.2678,0.44786 0.79237,0 1.27468,-0.4892 0.48921,-0.4892 0.48921,-1.27468 z m 1.26779,-2.27376 v 3.84472 h 1.12999 v 0.73036 h -2.39778 v -0.79237 q -0.42031,0.50987 -0.97152,0.75103 -0.55121,0.24115 -1.28846,0.24115 -1.21957,0 -1.93615,-0.64767 -0.71658,-0.64768 -0.71658,-1.75011 0,-1.13688 0.81994,-1.76389 0.81993,-0.627 2.3151,-0.627 h 1.77767 v -0.50299 q 0,-0.83371 -0.50988,-1.28846 -0.50298,-0.46165 -1.41938,-0.46165 -0.75792,0 -1.20578,0.34451 -0.44786,0.34451 -0.5581,1.01975 h -0.65457 v -1.48139 q 0.66146,-0.2825 1.28157,-0.4203 0.62701,-0.14469 1.21957,-0.14469 1.52273,0 2.3151,0.75792 0.79926,0.75103 0.79926,2.19108 z m 3.05235,-2.01194 h -1.11621 v -0.73725 h 1.11621 v -2.27376 h 1.27469 v 2.27376 h 2.384 v 0.73725 h -2.384 v 4.65088 q 0,0.93017 0.17914,1.192 0.17915,0.26183 0.66146,0.26183 0.49609,0 0.72347,-0.28939 0.22737,-0.29628 0.24115,-0.95085 h 0.95774 q -0.0551,0.99908 -0.54432,1.46072 -0.48921,0.46164 -1.48828,0.46164 -1.09554,0 -1.5503,-0.48231 -0.45475,-0.4892 -0.45475,-1.65364 z m 9.7634,4.2857 v -1.55029 h -1.63298 q -0.94395,0 -1.4056,0.40652 -0.46164,0.40652 -0.46164,1.24712 0,0.76481 0.46853,1.21267 0.46854,0.44786 1.2678,0.44786 0.79237,0 1.27468,-0.4892 0.48921,-0.4892 0.48921,-1.27468 z m 1.26779,-2.27376 v 3.84472 h 1.12999 v 0.73036 h -2.39778 v -0.79237 q -0.42031,0.50987 -0.97152,0.75103 -0.55121,0.24115 -1.28846,0.24115 -1.21957,0 -1.93615,-0.64767 -0.71658,-0.64768 -0.71658,-1.75011 0,-1.13688 0.81994,-1.76389 0.81993,-0.627 2.3151,-0.627 h 1.77767 v -0.50299 q 0,-0.83371 -0.50988,-1.28846 -0.50298,-0.46165 -1.41938,-0.46165 -0.75792,0 -1.20578,0.34451 -0.44786,0.34451 -0.5581,1.01975 h -0.65457 v -1.48139 q 0.66146,-0.2825 1.28157,-0.4203 0.62701,-0.14469 1.21957,-0.14469 1.52273,0 2.3151,0.75792 0.79926,0.75103 0.79926,2.19108 z m 2.32199,4.16856 v -1.70877 h 0.73036 q 0.0276,0.81993 0.50988,1.22645 0.4892,0.40653 1.44005,0.40653 0.85438,0 1.30224,-0.31695 0.44786,-0.32384 0.44786,-0.93707 0,-0.48231 -0.33073,-0.77859 -0.32383,-0.29628 -1.37803,-0.6339 l -0.9164,-0.31005 q -0.94395,-0.30317 -1.37114,-0.75792 -0.42031,-0.45476 -0.42031,-1.15756 0,-1.00596 0.73725,-1.57785 0.73725,-0.57188 2.0395,-0.57188 0.57877,0 1.21956,0.15158 0.64079,0.15158 1.32292,0.44097 v 1.59853 h -0.73036 q -0.0276,-0.70969 -0.4961,-1.10932 -0.46853,-0.39964 -1.27468,-0.39964 -0.79926,0 -1.21267,0.2825 -0.40652,0.2825 -0.40652,0.8475 0,0.46164 0.31006,0.74414 0.31005,0.2756 1.24023,0.56499 l 1.00597,0.31006 q 1.04041,0.32384 1.49517,0.81304 0.46164,0.48231 0.46164,1.24712 0,1.04042 -0.79926,1.63987 -0.79237,0.59255 -2.19108,0.59255 -0.70969,0 -1.38493,-0.15158 -0.67524,-0.15158 -1.35048,-0.45475 z m 14.09732,-3.12126 h -5.46391 v 0.0551 q 0,1.48139 0.5581,2.23931 0.55811,0.75103 1.64676,0.75103 0.83371,0 1.36425,-0.43409 0.53744,-0.44097 0.75103,-1.30224 h 1.01975 q -0.30317,1.20578 -1.1231,1.81212 -0.81304,0.60633 -2.14285,0.60633 -1.60541,0 -2.58382,-1.05419 -0.97151,-1.06109 -0.97151,-2.8112 0,-1.73633 0.95773,-2.79742 0.95774,-1.06108 2.51492,-1.06108 1.66053,0 2.54937,1.02663 0.88883,1.01975 0.92328,2.96967 z m -1.49517,-0.73036 q -0.0413,-1.28157 -0.54432,-1.92925 -0.49609,-0.65457 -1.43316,-0.65457 -0.87505,0 -1.37804,0.65457 -0.50298,0.65457 -0.61322,1.92925 z m 3.72071,-2.32888 h -1.11622 v -0.73725 h 1.11622 v -2.27376 h 1.27468 v 2.27376 h 2.384 v 0.73725 h -2.384 v 4.65088 q 0,0.93017 0.17914,1.192 0.17915,0.26183 0.66146,0.26183 0.4961,0 0.72347,-0.28939 0.22738,-0.29628 0.24116,-0.95085 h 0.95773 q -0.0551,0.99908 -0.54432,1.46072 -0.4892,0.46164 -1.48828,0.46164 -1.09554,0 -1.55029,-0.48231 -0.45475,-0.4892 -0.45475,-1.65364 z"
         id="path27" />
    </g>
    <path
       id="rect5"
       style="fill:#d5e5ff;stroke:#000000;stroke-width:0.999996;stroke-miterlimit:12"
       d="m 90.859616,121.23103 41.719304,41.7193 -41.719308,41.7193 -41.7193,-41.7193 z" />
    <g
       id="g8"
       transform="translate(15.246979,-19.627792)"
       style="fill:#d5e5ff">
      <path
         id="rect3"
         style="opacity:1;stroke:#000000;stroke-miterlimit:12"
         d="M -68.157715,160.78125 H 6.1391602 V 204.375 H -68.157715 Z" />
      <g
         id="text4"
         style="font-size:14.1111px;font-family:'DejaVu Serif';-inkscape-font-specification:'DejaVu Serif, Normal';text-align:center;text-anchor:middle;opacity:0.75;fill:#3e3e3e;stroke-width:0.499999;stroke-miterlimit:12;stroke-dasharray:1.5, 1.5"
         aria-label="Features&#10;Targets">
        <path
           style="stroke-width:0.5"
           d="m -61.698167,177.33469 v -0.73036 h 1.309136 v -8.81944 h -1.309136 v -0.73725 h 8.419807 v 2.28754 h -0.847493 v -1.44005 h -4.864471 v 3.44509 h 3.513995 v -1.28846 h 0.847493 v 3.41753 h -0.847493 v -1.28846 h -3.513995 v 4.4235 h 1.646755 v 0.73036 z m 15.888768,-3.52778 h -5.463917 v 0.0551 q 0,1.48139 0.558105,2.23931 0.558105,0.75103 1.646755,0.75103 0.833712,0 1.364256,-0.43408 0.537435,-0.44097 0.75103,-1.30224 h 1.019748 q -0.303168,1.20578 -1.1231,1.81212 -0.813042,0.60633 -2.142848,0.60633 -1.605413,0 -2.58382,-1.0542 -0.971516,-1.06109 -0.971516,-2.81119 0,-1.73633 0.957736,-2.79742 0.957736,-1.06109 2.514918,-1.06109 1.660534,0 2.549368,1.02664 0.888834,1.01975 0.923285,2.96967 z m -1.49517,-0.73036 q -0.04134,-1.28157 -0.544325,-1.92925 -0.496093,-0.65457 -1.433158,-0.65457 -0.875054,0 -1.378037,0.65457 -0.502984,0.65457 -0.613227,1.92925 z m 7.813472,1.95681 v -1.55029 h -1.632974 q -0.943956,0 -1.405598,0.40652 -0.461642,0.40652 -0.461642,1.24713 0,0.76481 0.468532,1.21267 0.468533,0.44786 1.267794,0.44786 0.792372,0 1.274685,-0.4892 0.489203,-0.4892 0.489203,-1.27469 z m 1.267794,-2.27376 v 3.84473 h 1.129991 v 0.73036 h -2.397785 v -0.79238 q -0.420301,0.50988 -0.971516,0.75104 -0.551215,0.24115 -1.288465,0.24115 -1.219563,0 -1.936142,-0.64768 -0.716579,-0.64767 -0.716579,-1.7501 0,-1.13688 0.819932,-1.76389 0.819932,-0.62701 2.315102,-0.62701 h 1.777668 v -0.50298 q 0,-0.83371 -0.509874,-1.28847 -0.502983,-0.46164 -1.419378,-0.46164 -0.75792,0 -1.205783,0.34451 -0.447862,0.34451 -0.558105,1.01975 h -0.654567 v -1.48139 q 0.661458,-0.2825 1.281574,-0.4203 0.627007,-0.1447 1.219563,-0.1447 1.522731,0 2.315103,0.75792 0.799261,0.75103 0.799261,2.19108 z m 3.052352,-2.01193 h -1.11621 v -0.73725 h 1.11621 v -2.27376 h 1.274684 v 2.27376 h 2.384004 v 0.73725 h -2.384004 v 4.65087 q 0,0.93018 0.179145,1.19201 0.179145,0.26182 0.661458,0.26182 0.496093,0 0.723469,-0.28938 0.227376,-0.29628 0.241157,-0.95085 h 0.957736 q -0.05512,0.99908 -0.544325,1.46072 -0.489203,0.46164 -1.48828,0.46164 -1.09554,0 -1.550292,-0.48231 -0.454752,-0.4892 -0.454752,-1.65365 z m 9.143275,-0.73725 h 2.370224 v 6.59391 h 1.198892 v 0.73036 h -2.466686 v -1.29536 q -0.351399,0.73036 -0.909505,1.11621 -0.558105,0.37896 -1.295354,0.37896 -1.219563,0 -1.798339,-0.68902 -0.571885,-0.69591 -0.571885,-2.1773 v -3.92051 H -30.6441 v -0.73725 h 2.418455 v 4.26502 q 0,1.3367 0.323839,1.83279 0.330729,0.4961 1.171331,0.4961 0.881944,0 1.343587,-0.64768 0.461642,-0.64768 0.461642,-1.88102 v -3.32796 h -1.10243 z m 10.838265,-0.0138 v 1.83279 h -0.73036 q -0.03445,-0.54433 -0.303168,-0.81304 -0.268717,-0.26872 -0.785481,-0.26872 -0.937065,0 -1.440049,0.64768 -0.496093,0.64767 -0.496093,1.86035 v 3.34863 h 1.467609 v 0.73036 h -3.879174 v -0.73036 h 1.143771 v -5.87044 h -1.212673 v -0.72347 h 2.480467 v 1.30224 q 0.37207,-0.76481 0.957736,-1.12999 0.585665,-0.37207 1.426268,-0.37207 0.310058,0 0.647678,0.0482 0.344509,0.0482 0.723469,0.13781 z m 7.6481054,3.81027 h -5.4639174 v 0.0551 q 0,1.48139 0.558105,2.23931 0.558105,0.75103 1.646755,0.75103 0.8337121,0 1.3642564,-0.43408 0.5374345,-0.44097 0.7510302,-1.30224 h 1.0197475 q -0.3031682,1.20578 -1.1231003,1.81212 -0.8130419,0.60633 -2.1428478,0.60633 -1.605413,0 -2.58382,-1.0542 -0.971516,-1.06109 -0.971516,-2.81119 0,-1.73633 0.957736,-2.79742 0.957736,-1.06109 2.514918,-1.06109 1.6605346,0 2.5493685,1.02664 0.888834,1.01975 0.9232849,2.96967 z m -1.4951703,-0.73036 q -0.041341,-1.28157 -0.5443246,-1.92925 -0.4960935,-0.65457 -1.4331585,-0.65457 -0.875054,0 -1.378037,0.65457 -0.502984,0.65457 -0.613227,1.92925 z m 2.990342,3.85162 v -1.70877 h 0.7303597 q 0.027561,0.81993 0.5098737,1.22645 0.4892032,0.40652 1.4400488,0.40652 0.854383,0 1.3022451,-0.31695 0.447862,-0.32383 0.447862,-0.93706 0,-0.48231 -0.3307289,-0.77859 -0.3238387,-0.29628 -1.3780371,-0.6339 l -0.9163947,-0.31006 q -0.9439554,-0.30317 -1.3711469,-0.75792 -0.4203013,-0.45475 -0.4203013,-1.15755 0,-1.00597 0.7372498,-1.57785 0.7372499,-0.57189 2.039495,-0.57189 0.5787756,0 1.2195628,0.15159 0.6407873,0.15158 1.32291567,0.44097 v 1.59852 H -1.4434899 q -0.027561,-0.70969 -0.4960934,-1.10932 -0.4685326,-0.39963 -1.2746843,-0.39963 -0.7992616,0 -1.2126727,0.2825 -0.4065209,0.2825 -0.4065209,0.84749 0,0.46164 0.3100583,0.74414 0.3100584,0.27561 1.2402334,0.565 l 1.0059671,0.31006 q 1.0404181,0.32383 1.49517031,0.81304 0.46164244,0.48231 0.46164244,1.24712 0,1.04042 -0.79926155,1.63987 -0.7923713,0.59255 -2.191079,0.59255 -0.7096891,0 -1.3849273,-0.15158 -0.6752382,-0.15159 -1.3504764,-0.45475 z"
           id="path28" />
        <path
           style="stroke-width:0.5"
           d="m -55.228282,194.97356 v -0.73036 h 1.316025 v -8.73675 h -3.024791 v 1.60541 h -0.847493 v -2.42535 h 9.136386 v 2.42535 h -0.847493 v -1.60541 h -3.024791 v 8.73675 h 1.316025 v 0.73036 z m 11.237892,-2.30132 v -1.55029 h -1.632974 q -0.943955,0 -1.405597,0.40652 -0.461643,0.40652 -0.461643,1.24712 0,0.76481 0.468533,1.21267 0.468532,0.44787 1.267794,0.44787 0.792371,0 1.274684,-0.48921 0.489203,-0.4892 0.489203,-1.27468 z m 1.267795,-2.27376 v 3.84472 h 1.12999 v 0.73036 h -2.397785 v -0.79237 q -0.420301,0.50987 -0.971516,0.75103 -0.551215,0.24116 -1.288464,0.24116 -1.219563,0 -1.936143,-0.64768 -0.716579,-0.64768 -0.716579,-1.75011 0,-1.13688 0.819932,-1.76389 0.819932,-0.627 2.315103,-0.627 h 1.777667 v -0.50299 q 0,-0.83371 -0.509873,-1.28846 -0.502984,-0.46164 -1.419379,-0.46164 -0.75792,0 -1.205782,0.34451 -0.447862,0.34451 -0.558105,1.01974 h -0.654568 v -1.48139 q 0.661458,-0.28249 1.281575,-0.4203 0.627007,-0.14469 1.219563,-0.14469 1.522731,0 2.315102,0.75792 0.799262,0.75103 0.799262,2.19108 z m 8.275112,-2.76297 v 1.83279 h -0.73036 q -0.03445,-0.54432 -0.303168,-0.81304 -0.268717,-0.26872 -0.785481,-0.26872 -0.937065,0 -1.440049,0.64768 -0.496093,0.64768 -0.496093,1.86035 v 3.34863 h 1.467609 v 0.73036 h -3.879174 v -0.73036 h 1.143771 v -5.87044 h -1.212673 v -0.72347 h 2.480467 v 1.30225 q 0.37207,-0.76481 0.957736,-1.12999 0.585665,-0.37207 1.426268,-0.37207 0.310058,0 0.647678,0.0482 0.344509,0.0482 0.723469,0.1378 z m 7.406951,0.75103 v 6.42855 q 0,1.57785 -0.868164,2.43223 -0.868163,0.86128 -2.473576,0.86128 -0.72347,0 -1.384928,-0.13092 -0.661457,-0.13091 -1.267794,-0.39274 v -1.53651 h 0.661458 q 0.124023,0.71658 0.585666,1.04731 0.461642,0.33073 1.322916,0.33073 1.11621,0 1.632974,-0.6339 0.523654,-0.62701 0.523654,-1.97748 v -0.9853 q -0.37207,0.68902 -0.950846,1.01975 -0.571885,0.32384 -1.419378,0.32384 -1.350477,0 -2.21175,-1.06798 -0.854383,-1.07487 -0.854383,-2.79742 0,-1.72254 0.854383,-2.79052 0.854383,-1.06798 2.21175,-1.06798 0.847493,0 1.419378,0.33073 0.578776,0.32384 0.950846,1.01286 v -1.14378 h 2.480466 v 0.73725 z m -1.267794,2.56315 q 0,-1.31602 -0.509874,-2.01193 -0.502984,-0.69591 -1.46761,-0.69591 -0.978406,0 -1.48139,0.7717 -0.496093,0.7717 -0.496093,2.29443 0,1.51584 0.496093,2.29443 0.502984,0.7786 1.48139,0.7786 0.964626,0 1.46761,-0.68902 0.509874,-0.69591 0.509874,-2.01883 z m 10.541984,0.4961 h -5.463918 v 0.0551 q 0,1.48139 0.558105,2.23931 0.558106,0.75103 1.646755,0.75103 0.833712,0 1.364257,-0.43408 0.537434,-0.44098 0.75103,-1.30225 h 1.019747 q -0.303168,1.20578 -1.1231,1.81212 -0.813042,0.60634 -2.142848,0.60634 -1.605413,0 -2.583819,-1.0542 -0.971516,-1.06109 -0.971516,-2.8112 0,-1.73632 0.957735,-2.79741 0.957736,-1.06109 2.514918,-1.06109 1.660535,0 2.549369,1.02664 0.888834,1.01974 0.923285,2.96967 z m -1.495171,-0.73036 q -0.04134,-1.28158 -0.544324,-1.92926 -0.496094,-0.65456 -1.433159,-0.65456 -0.875053,0 -1.378037,0.65456 -0.502984,0.65457 -0.613227,1.92926 z m 3.720702,-2.32889 h -1.11621 v -0.73725 h 1.11621 v -2.27376 h 1.274684 v 2.27376 h 2.384005 v 0.73725 h -2.384005 v 4.65088 q 0,0.93017 0.179145,1.192 0.179145,0.26183 0.661458,0.26183 0.496093,0 0.723469,-0.28939 0.227377,-0.29628 0.241157,-0.95084 h 0.957736 q -0.05512,0.99907 -0.544325,1.46071 -0.489203,0.46165 -1.48828,0.46165 -1.095539,0 -1.550292,-0.48232 -0.454752,-0.4892 -0.454752,-1.65364 z m 4.940264,6.1805 v -1.70877 h 0.7303598 q 0.027561,0.81994 0.5098737,1.22646 0.4892032,0.40652 1.4400488,0.40652 0.854383,0 1.3022451,-0.31695 0.4478621,-0.32384 0.4478621,-0.93707 0,-0.48231 -0.3307289,-0.77859 -0.3238388,-0.29627 -1.3780372,-0.63389 l -0.9163947,-0.31006 q -0.9439554,-0.30317 -1.3711467,-0.75792 -0.420302,-0.45475 -0.420302,-1.15755 0,-1.00597 0.7372503,-1.57786 0.7372499,-0.57188 2.039495,-0.57188 0.5787756,0 1.2195629,0.15158 0.6407872,0.15159 1.3229156,0.44097 v 1.59853 h -0.7303597 q -0.027561,-0.70969 -0.4960934,-1.10932 -0.4685326,-0.39963 -1.2746843,-0.39963 -0.7992615,0 -1.2126727,0.28249 -0.4065209,0.2825 -0.4065209,0.8475 0,0.46164 0.3100583,0.74414 0.3100584,0.27561 1.2402334,0.56499 l 1.0059672,0.31006 q 1.040418,0.32384 1.4951702,0.81304 0.4616425,0.48232 0.4616425,1.24713 0,1.04041 -0.7992616,1.63986 -0.7923713,0.59256 -2.191079,0.59256 -0.7096891,0 -1.3849273,-0.15159 -0.6752382,-0.15158 -1.3504765,-0.45475 z"
           id="path29" />
      </g>
    </g>
    <g
       id="g56"
       transform="translate(5.297762)">
      <g
         id="g9"
         style="display:inline;fill:#d5e5ff"
         transform="translate(2.34375,-22.5)">
        <path
           id="path1-2"
           style="opacity:1;fill:#d5e5ff;stroke:#000000;stroke-width:1;stroke-miterlimit:12;stroke-dasharray:none;stroke-dashoffset:0;stroke-opacity:1"
           d="m -144.77854,162.34908 v 46.20286 a 28.339514,11.60097 0 0 0 28.33935,11.60085 28.339514,11.60097 0 0 0 28.339874,-11.60085 28.339514,11.60097 0 0 0 0,-0.006 v -46.19686 z" />
        <path
           id="path1"
           style="opacity:1;stroke:#000000;stroke-miterlimit:12"
           d="m -88.099459,162.34885 a 28.339514,11.60097 0 0 1 -28.339511,11.60097 28.339514,11.60097 0 0 1 -28.33952,-11.60097 28.339514,11.60097 0 0 1 28.33952,-11.60097 28.339514,11.60097 0 0 1 28.339511,11.60097 z" />
      </g>
      <g
         id="text1"
         style="font-size:14.1111px;font-family:'DejaVu Serif';-inkscape-font-specification:'DejaVu Serif, Normal';text-align:center;text-anchor:middle;display:inline;opacity:0.75;fill:#3e3e3e;stroke-width:0.499999;stroke-miterlimit:12;stroke-dasharray:1.5, 1.5"
         aria-label="Raw&#10;dataset">
        <path
           style="stroke-width:0.5"
           d="m -123.44542,163.04444 q 0.48231,0.13092 0.82682,0.44786 0.3514,0.31006 0.62701,0.87506 l 1.49517,3.05235 h 1.25401 v 0.73036 h -2.42534 l -1.60542,-3.27284 q -0.46164,-0.95084 -0.84749,-1.22645 -0.38585,-0.2825 -1.06109,-0.2825 h -1.53651 v 4.05143 h 1.45383 v 0.73036 h -4.16167 v -0.73036 h 1.30913 v -8.81944 h -1.30913 v -0.73725 h 5.21587 q 1.50206,0 2.3151,0.71658 0.81993,0.71658 0.81993,2.03261 0,1.06109 -0.59944,1.67431 -0.59256,0.60634 -1.77078,0.75792 z m -3.27284,-0.41341 h 2.03261 q 1.04041,0 1.53651,-0.4892 0.49609,-0.4961 0.49609,-1.52962 0,-1.03353 -0.49609,-1.52273 -0.4961,-0.48921 -1.53651,-0.48921 h -2.03261 z m 13.07757,3.21772 v -1.55029 h -1.63297 q -0.94395,0 -1.4056,0.40652 -0.46164,0.40652 -0.46164,1.24712 0,0.76481 0.46853,1.21267 0.46854,0.44787 1.2678,0.44787 0.79237,0 1.27468,-0.48921 0.4892,-0.4892 0.4892,-1.27468 z m 1.2678,-2.27376 v 3.84472 h 1.12999 v 0.73036 h -2.39779 v -0.79237 q -0.4203,0.50987 -0.97151,0.75103 -0.55122,0.24116 -1.28847,0.24116 -1.21956,0 -1.93614,-0.64768 -0.71658,-0.64768 -0.71658,-1.75011 0,-1.13688 0.81993,-1.76389 0.81994,-0.627 2.31511,-0.627 h 1.77766 v -0.50299 q 0,-0.83371 -0.50987,-1.28846 -0.50298,-0.46164 -1.41938,-0.46164 -0.75792,0 -1.20578,0.34451 -0.44786,0.3445 -0.5581,1.01974 h -0.65457 v -1.48139 q 0.66146,-0.28249 1.28157,-0.4203 0.62701,-0.14469 1.21956,-0.14469 1.52274,0 2.31511,0.75792 0.79926,0.75103 0.79926,2.19108 z m 8.30267,-2.74919 1.87413,5.71886 1.65365,-4.98161 h -1.06109 v -0.73725 h 2.652722 v 0.73725 h -0.813042 l -2.1773,6.58702 h -1.0542 l -1.80523,-5.4777 -1.81211,5.4777 h -1.01286 l -2.17041,-6.58702 h -0.81993 v -0.73725 h 3.31418 v 0.73725 h -1.18512 l 1.63987,4.98161 1.88791,-5.71886 z"
           id="path30" />
        <path
           style="stroke-width:0.5"
           d="m -133.47409,185.05859 h 1.21268 v 0.73036 h -2.48047 v -1.14378 q -0.37207,0.68902 -0.95084,1.01975 -0.57189,0.32384 -1.41938,0.32384 -1.35048,0 -2.21175,-1.06798 -0.85439,-1.07487 -0.85439,-2.79741 0,-1.72255 0.85439,-2.79053 0.85438,-1.06798 2.21175,-1.06798 0.84749,0 1.41938,0.33073 0.57877,0.32384 0.95084,1.01286 v -3.81027 h -1.19889 v -0.73036 h 2.46668 z m -1.26779,-2.57004 v -0.72347 q 0,-1.31603 -0.50987,-2.01194 -0.50299,-0.69591 -1.46761,-0.69591 -0.97841,0 -1.48139,0.7717 -0.4961,0.77171 -0.4961,2.29444 0,1.51584 0.4961,2.29443 0.50298,0.77859 1.48139,0.77859 0.96462,0 1.46761,-0.68902 0.50987,-0.69591 0.50987,-2.01882 z m 8.50938,0.99907 v -1.55029 h -1.63297 q -0.94396,0 -1.4056,0.40652 -0.46164,0.40652 -0.46164,1.24713 0,0.76481 0.46853,1.21267 0.46853,0.44786 1.26779,0.44786 0.79237,0 1.27469,-0.4892 0.4892,-0.48921 0.4892,-1.27469 z m 1.26779,-2.27376 v 3.84473 h 1.12999 v 0.73036 h -2.39778 v -0.79238 q -0.4203,0.50988 -0.97152,0.75103 -0.55121,0.24116 -1.28846,0.24116 -1.21956,0 -1.93614,-0.64768 -0.71658,-0.64767 -0.71658,-1.7501 0,-1.13688 0.81993,-1.76389 0.81993,-0.62701 2.3151,-0.62701 h 1.77767 v -0.50298 q 0,-0.83371 -0.50987,-1.28847 -0.50299,-0.46164 -1.41938,-0.46164 -0.75792,0 -1.20578,0.34451 -0.44787,0.34451 -0.55811,1.01975 h -0.65457 v -1.48139 q 0.66146,-0.2825 1.28158,-0.4203 0.627,-0.1447 1.21956,-0.1447 1.52273,0 2.3151,0.75792 0.79926,0.75103 0.79926,2.19108 z m 3.05236,-2.01193 h -1.11621 v -0.73725 h 1.11621 v -2.27376 h 1.27468 v 2.27376 h 2.384 v 0.73725 h -2.384 v 4.65087 q 0,0.93018 0.17914,1.19201 0.17915,0.26182 0.66146,0.26182 0.4961,0 0.72347,-0.28939 0.22738,-0.29627 0.24116,-0.95084 h 0.95773 q -0.0551,0.99908 -0.54432,1.46072 -0.4892,0.46164 -1.48828,0.46164 -1.09554,0 -1.55029,-0.48231 -0.45475,-0.48921 -0.45475,-1.65365 z m 9.76339,4.28569 v -1.55029 h -1.63297 q -0.94396,0 -1.4056,0.40652 -0.46164,0.40652 -0.46164,1.24713 0,0.76481 0.46853,1.21267 0.46853,0.44786 1.26779,0.44786 0.79237,0 1.27469,-0.4892 0.4892,-0.48921 0.4892,-1.27469 z m 1.26779,-2.27376 v 3.84473 h 1.12999 v 0.73036 h -2.39778 v -0.79238 q -0.4203,0.50988 -0.97152,0.75103 -0.55121,0.24116 -1.28846,0.24116 -1.21956,0 -1.93614,-0.64768 -0.71658,-0.64767 -0.71658,-1.7501 0,-1.13688 0.81993,-1.76389 0.81993,-0.62701 2.3151,-0.62701 h 1.77767 v -0.50298 q 0,-0.83371 -0.50987,-1.28847 -0.50299,-0.46164 -1.41938,-0.46164 -0.75792,0 -1.20578,0.34451 -0.44787,0.34451 -0.55811,1.01975 h -0.65457 v -1.48139 q 0.66146,-0.2825 1.28158,-0.4203 0.627,-0.1447 1.21956,-0.1447 1.52273,0 2.3151,0.75792 0.79926,0.75103 0.79926,2.19108 z m 2.322,4.16856 v -1.70876 h 0.73036 q 0.0276,0.81993 0.50987,1.22645 0.4892,0.40652 1.44005,0.40652 0.85438,0 1.30225,-0.31695 0.44786,-0.32383 0.44786,-0.93706 0,-0.48231 -0.33073,-0.77859 -0.32384,-0.29628 -1.37804,-0.6339 l -0.91639,-0.31006 q -0.94396,-0.30317 -1.37115,-0.75792 -0.4203,-0.45475 -0.4203,-1.15755 0,-1.00597 0.73725,-1.57785 0.73725,-0.57189 2.03949,-0.57189 0.57878,0 1.21957,0.15159 0.64078,0.15158 1.32291,0.44097 v 1.59852 h -0.73036 q -0.0276,-0.70969 -0.49609,-1.10932 -0.46853,-0.39963 -1.27469,-0.39963 -0.79926,0 -1.21267,0.2825 -0.40652,0.2825 -0.40652,0.84749 0,0.46164 0.31006,0.74414 0.31006,0.27561 1.24023,0.565 l 1.00597,0.31006 q 1.04042,0.32383 1.49517,0.81304 0.46164,0.48231 0.46164,1.24712 0,1.04042 -0.79926,1.63986 -0.79237,0.59256 -2.19108,0.59256 -0.70969,0 -1.38493,-0.15158 -0.67523,-0.15159 -1.35047,-0.45476 z m 14.097317,-3.12125 h -5.463917 v 0.0551 q 0,1.48139 0.558105,2.23931 0.558105,0.75103 1.646755,0.75103 0.833712,0 1.364256,-0.43408 0.537435,-0.44097 0.751031,-1.30224 h 1.019747 q -0.303168,1.20578 -1.1231,1.81211 -0.813042,0.60634 -2.142848,0.60634 -1.605413,0 -2.583816,-1.0542 -0.97152,-1.06109 -0.97152,-2.81119 0,-1.73633 0.95774,-2.79742 0.957732,-1.06109 2.514914,-1.06109 1.660535,0 2.549369,1.02664 0.888834,1.01975 0.923284,2.96967 z m -1.49517,-0.73036 q -0.04134,-1.28157 -0.544324,-1.92925 -0.496094,-0.65457 -1.433159,-0.65457 -0.875054,0 -1.378037,0.65457 -0.502984,0.65457 -0.613227,1.92925 z m 3.720702,-2.32888 h -1.11621 v -0.73725 h 1.11621 v -2.27376 h 1.274684 v 2.27376 h 2.384004 v 0.73725 h -2.384004 v 4.65087 q 0,0.93018 0.179145,1.19201 0.179145,0.26182 0.661458,0.26182 0.496093,0 0.723469,-0.28939 0.227376,-0.29627 0.241157,-0.95084 h 0.957736 q -0.05512,0.99908 -0.544325,1.46072 -0.489203,0.46164 -1.48828,0.46164 -1.09554,0 -1.550292,-0.48231 -0.454752,-0.48921 -0.454752,-1.65365 z"
           id="path31" />
      </g>
    </g>
    <rect
       style="display:inline;opacity:0.627209;fill:none;fill-opacity:1;stroke:#000000;stroke-width:0.999997;stroke-miterlimit:12;stroke-dasharray:2, 4;stroke-dashoffset:0;stroke-opacity:1"
       id="rect33"
       width="422.04178"
       height="109.3398"
       x="-163.86438"
       y="257.0564" />
    <text
       xml:space="preserve"
       style="font-size:16.9333px;font-family:'DejaVu Serif';-inkscape-font-specification:'DejaVu Serif, Normal';text-align:center;text-anchor:middle;opacity:1;fill:#000000;fill-opacity:1;stroke-width:0.499999;stroke-miterlimit:12;stroke-dasharray:1.5, 1.5;-inkscape-stroke:none;stop-color:#000000"
       x="-89.245216"
       y="251.20688"
       id="text33"><tspan
         sodipodi:role="line"
         id="tspan33"
         style="font-style:italic;font-variant:normal;font-weight:normal;font-stretch:normal;font-size:16.9333px;font-family:'DejaVu Serif';-inkscape-font-specification:'DejaVu Serif Italic';fill:#000000;fill-opacity:1;stroke-width:0.5"
         x="-89.245216"
         y="251.20688">Training routine</tspan></text>
    <path
       style="display:inline;opacity:1;fill:none;fill-opacity:1;stroke:#676767;stroke-width:1;stroke-miterlimit:12;stroke-dasharray:none;stroke-dashoffset:0;stroke-opacity:1"
       d="m 135.22475,162.95033 c 5.97884,0 11.95765,0 14.94705,9.30499 2.98941,9.30498 2.98941,27.91419 5.12291,37.13565 2.13351,9.22146 6.40034,9.05479 10.66728,8.88812"
       id="path57"
       inkscape:path-effect="#path-effect57"
       inkscape:original-d="m 135.22475,162.95033 c 5.97884,0 11.95765,0 17.93646,0 0,18.60997 0,37.21918 0,55.82877 4.26701,-0.16667 8.53384,-0.33334 12.80078,-0.50001"
       transform="translate(-2.6458334)"
       sodipodi:nodetypes="cccc" />
    <path
       style="display:inline;opacity:1;fill:none;fill-opacity:1;stroke:#676767;stroke-width:0.903687;stroke-miterlimit:12;stroke-dasharray:none;stroke-dashoffset:0;stroke-opacity:1"
       d="m 140.86044,162.95033 c 8.36718,0 16.73436,0 25.10155,0"
       id="path59"
       inkscape:path-effect="#path-effect60"
       inkscape:original-d="m 140.86044,162.95033 c 8.36718,0 16.73436,0 25.10155,0"
       transform="matrix(1.2245157,0,0,1,-39.906908,0)" />
    <path
       style="opacity:1;fill:none;fill-opacity:1;stroke:#676767;stroke-width:1;stroke-miterlimit:12;stroke-dasharray:none;stroke-dashoffset:0;stroke-opacity:1"
       d="m 165.46187,107.62157 c -4.10022,-0.16667 -8.20044,-0.33334 -10.25055,8.8883 -2.05011,9.22165 -2.05011,27.83087 -5.03957,37.13566 -2.98947,9.3048 -8.96816,9.3048 -14.947,9.3048"
       id="path60"
       inkscape:path-effect="#path-effect61"
       inkscape:original-d="m 165.46187,107.62157 c -4.10022,-0.16667 -8.20044,-0.33334 -12.30066,-0.50001 0,18.60996 0,37.21918 0,55.82877 -5.97893,0 -11.95762,0 -17.93646,0"
       transform="translate(-2.6458334)"
       sodipodi:nodetypes="cccc" />
    <path
       style="opacity:1;fill:#000000;fill-opacity:1;stroke:#676767;stroke-width:1.15432;stroke-miterlimit:12;stroke-dasharray:none;stroke-dashoffset:0;stroke-opacity:1"
       d="m 203.11044,240.07597 c 0,7.86523 0,15.73045 0,23.59568"
       id="path62"
       inkscape:path-effect="#path-effect62"
       inkscape:original-d="m 203.11044,240.07597 c 0,7.86523 0,15.73045 0,23.59568"
       transform="matrix(0.95671369,0,0,0.78446015,8.7919018,52.245938)" />
    <path
       style="opacity:1;fill:#676767;fill-opacity:1;stroke:#676767;stroke-width:1;stroke-miterlimit:12;stroke-dasharray:none;stroke-dashoffset:0;stroke-opacity:1"
       d="m 203.11046,262.22475 -2.30198,-3.70215 c 0,0 1.512,0.56324 2.30198,0.56324 0.78995,0 2.30195,-0.56324 2.30195,-0.56324 z"
       id="path61"
       sodipodi:nodetypes="ccscc" />
    <path
       style="fill:#676767;fill-opacity:1;stroke:#676767;stroke-width:1;stroke-miterlimit:12;stroke-dasharray:none;stroke-dashoffset:0;stroke-opacity:1"
       d="m 164.51509,218.27907 -3.70215,2.30198 c 0,0 0.56324,-1.512 0.56324,-2.30198 0,-0.78995 -0.56324,-2.30195 -0.56324,-2.30195 z"
       id="path61-5"
       sodipodi:nodetypes="ccscc" />
    <path
       style="fill:#676767;fill-opacity:1;stroke:#676767;stroke-width:1;stroke-miterlimit:12;stroke-dasharray:none;stroke-dashoffset:0;stroke-opacity:1"
       d="m 47.486307,162.95031 -3.70215,2.30198 c 0,0 0.56324,-1.512 0.56324,-2.30198 0,-0.78995 -0.56324,-2.30195 -0.56324,-2.30195 z"
       id="path61-5-86"
       sodipodi:nodetypes="ccscc" />
    <g
       id="text4-1-9"
       style="font-size:14.1111px;font-family:'DejaVu Serif';-inkscape-font-specification:'DejaVu Serif, Normal';text-align:center;text-anchor:middle;opacity:0.75;fill:#3e3e3e;stroke-width:0.499999;stroke-miterlimit:12;stroke-dasharray:1.5, 1.5"
       aria-label="Test&#10;dataset"
       transform="translate(3.51105)" />
    <path
       style="fill:#676767;fill-opacity:1;stroke:#676767;stroke-width:1;stroke-miterlimit:12;stroke-dasharray:none;stroke-dashoffset:0;stroke-opacity:1"
       d="m 164.51509,162.95031 -3.70215,2.30198 c 0,0 0.56324,-1.512 0.56324,-2.30198 0,-0.78995 -0.56324,-2.30195 -0.56324,-2.30195 z"
       id="path61-5-8"
       sodipodi:nodetypes="ccscc" />
    <path
       style="fill:#676767;fill-opacity:1;stroke:#676767;stroke-width:1;stroke-miterlimit:12;stroke-dasharray:none;stroke-dashoffset:0;stroke-opacity:1"
       d="m 164.51509,107.62154 -3.70215,2.30198 c 0,0 0.56324,-1.512 0.56324,-2.30198 0,-0.78995 -0.56324,-2.30195 -0.56324,-2.30195 z"
       id="path61-5-6"
       sodipodi:nodetypes="ccscc" />
    <g
       id="g68">
      <g
         id="g17"
         transform="translate(195.73131,-16.567695)">
        <path
           id="rect3-9"
           style="fill:#fff6d5;stroke:#000000;stroke-width:0.999998;stroke-miterlimit:12"
           d="m -42.12088,280.23935 h 99.000008 v 23 H -42.12088 Z" />
        <path
           style="font-size:14.1111px;font-family:'DejaVu Serif';-inkscape-font-specification:'DejaVu Serif, Normal';text-align:center;text-anchor:middle;opacity:0.75;fill:#3e3e3e;stroke-width:0.5;stroke-miterlimit:12;stroke-dasharray:1.5, 1.5"
           d="m -31.633109,296.26964 h 1.281574 q 2.005044,0 3.073023,-1.14377 1.074869,-1.14377 1.074869,-3.27973 0,-2.13596 -1.067979,-3.26595 -1.067979,-1.12999 -3.079913,-1.12999 h -1.281574 z M -34.340952,297 v -0.73036 h 1.309135 v -8.81944 h -1.309135 v -0.73725 h 4.09277 q 2.659612,0 4.141001,1.35737 1.488281,1.35737 1.488281,3.77582 0,2.42535 -1.488281,3.7896 Q -27.595461,297 -30.248182,297 Z m 16.150594,-2.30132 v -1.55029 h -1.632974 q -0.943955,0 -1.405597,0.40652 -0.461643,0.40652 -0.461643,1.24712 0,0.76481 0.468533,1.21267 0.468532,0.44787 1.267794,0.44787 0.792371,0 1.274684,-0.48921 0.489203,-0.4892 0.489203,-1.27468 z m 1.267795,-2.27376 v 3.84472 h 1.12999 V 297 h -2.397785 v -0.79237 q -0.420301,0.50987 -0.971516,0.75103 -0.551215,0.24116 -1.288464,0.24116 -1.219563,0 -1.936143,-0.64768 -0.716579,-0.64768 -0.716579,-1.75011 0,-1.13688 0.819932,-1.76389 0.819932,-0.627 2.315103,-0.627 h 1.777667 v -0.50299 q 0,-0.83371 -0.509873,-1.28846 -0.502984,-0.46164 -1.419379,-0.46164 -0.75792,0 -1.205782,0.3445 -0.447862,0.34451 -0.558105,1.01975 h -0.654568 v -1.48139 q 0.661458,-0.2825 1.281575,-0.4203 0.627007,-0.14469 1.219563,-0.14469 1.522731,0 2.315102,0.75792 0.799262,0.75103 0.799262,2.19108 z m 3.052351,-2.01194 h -1.11621 v -0.73725 h 1.11621 v -2.27376 h 1.274685 v 2.27376 h 2.384004 v 0.73725 h -2.384004 v 4.65088 q 0,0.93017 0.179144,1.192 0.179145,0.26183 0.661458,0.26183 0.496094,0 0.72347,-0.28939 0.227376,-0.29628 0.241156,-0.95085 h 0.9577361 q -0.055122,0.99908 -0.5443251,1.46072 -0.489203,0.46165 -1.48828,0.46165 -1.095539,0 -1.550291,-0.48232 -0.454753,-0.4892 -0.454753,-1.65364 z m 9.7633944,4.2857 v -1.55029 h -1.632974 q -0.9439555,0 -1.4055979,0.40652 -0.4616424,0.40652 -0.4616424,1.24712 0,0.76481 0.4685326,1.21267 0.4685326,0.44787 1.2677941,0.44787 0.7923714,0 1.2746844,-0.48921 0.4892032,-0.4892 0.4892032,-1.27468 z m 1.2677941,-2.27376 v 3.84472 H -1.709033 V 297 h -2.3977846 v -0.79237 q -0.4203014,0.50987 -0.9715162,0.75103 -0.5512149,0.24116 -1.2884647,0.24116 -1.2195629,0 -1.9361422,-0.64768 -0.7165793,-0.64768 -0.7165793,-1.75011 0,-1.13688 0.8199321,-1.76389 0.8199321,-0.627 2.3151024,-0.627 h 1.7776679 v -0.50299 q 0,-0.83371 -0.5098738,-1.28846 -0.5029835,-0.46164 -1.4193782,-0.46164 -0.7579204,0 -1.2057825,0.3445 -0.4478621,0.34451 -0.558105,1.01975 h -0.6545677 v -1.48139 q 0.6614579,-0.2825 1.2815746,-0.4203 0.6270069,-0.14469 1.2195628,-0.14469 1.522731,0 2.3151024,0.75792 0.7992615,0.75103 0.7992615,2.19108 z M -0.53080986,297 v -0.73036 h 1.30913527 v -8.81944 h -1.30913527 v -0.73725 H 3.4861684 v 0.73725 H 2.1770331 v 8.70231 h 4.6991066 v -1.72255 H 7.7236325 V 297 Z M 12.305605,296.51769 q 1.019747,0 1.536511,-0.80615 0.523654,-0.80616 0.523654,-2.37712 0,-1.57096 -0.523654,-2.37022 -0.516764,-0.80615 -1.536511,-0.80615 -1.019748,0 -1.543402,0.80615 -0.516764,0.79926 -0.516764,2.37022 0,1.57096 0.523654,2.37712 0.523654,0.80615 1.536512,0.80615 z m 0,0.68213 q -1.598523,0 -2.5700395,-1.0542 -0.9715162,-1.06109 -0.9715162,-2.8112 0,-1.75011 0.964626,-2.8043 0.9715167,-1.0542 2.5769297,-1.0542 1.605413,0 2.570039,1.0542 0.971516,1.05419 0.971516,2.8043 0,1.75011 -0.971516,2.8112 -0.964626,1.0542 -2.570039,1.0542 z m 9.866745,-2.50114 v -1.55029 h -1.632974 q -0.943956,0 -1.405598,0.40652 -0.461643,0.40652 -0.461643,1.24712 0,0.76481 0.468533,1.21267 0.468532,0.44787 1.267794,0.44787 0.792371,0 1.274684,-0.48921 0.489204,-0.4892 0.489204,-1.27468 z m 1.267794,-2.27376 v 3.84472 h 1.12999 V 297 H 22.17235 v -0.79237 q -0.420302,0.50987 -0.971517,0.75103 -0.551214,0.24116 -1.288464,0.24116 -1.219563,0 -1.936143,-0.64768 -0.716579,-0.64768 -0.716579,-1.75011 0,-1.13688 0.819932,-1.76389 0.819932,-0.627 2.315103,-0.627 h 1.777668 v -0.50299 q 0,-0.83371 -0.509874,-1.28846 -0.502984,-0.46164 -1.419378,-0.46164 -0.757921,0 -1.205783,0.3445 -0.447862,0.34451 -0.558105,1.01975 h -0.654568 v -1.48139 q 0.661458,-0.2825 1.281575,-0.4203 0.627007,-0.14469 1.219563,-0.14469 1.522731,0 2.315102,0.75792 0.799262,0.75103 0.799262,2.19108 z m 8.936572,3.84472 h 1.212673 V 297 h -2.480467 v -1.14377 q -0.37207,0.68902 -0.950846,1.01975 -0.571885,0.32384 -1.419378,0.32384 -1.350477,0 -2.21175,-1.06798 -0.854383,-1.07487 -0.854383,-2.79742 0,-1.72255 0.854383,-2.79052 0.854383,-1.06798 2.21175,-1.06798 0.847493,0 1.419378,0.33073 0.578776,0.32383 0.950846,1.01285 v -3.81027 h -1.198893 v -0.73036 h 2.466687 z m -1.267794,-2.57004 v -0.72347 q 0,-1.31602 -0.509874,-2.01193 -0.502984,-0.69591 -1.46761,-0.69591 -0.978406,0 -1.481389,0.7717 -0.496094,0.7717 -0.496094,2.29443 0,1.51584 0.496094,2.29443 0.502983,0.77859 1.481389,0.77859 0.964626,0 1.46761,-0.68901 0.509874,-0.69591 0.509874,-2.01883 z m 10.541986,-0.22738 H 36.18699 v 0.0551 q 0,1.48139 0.558106,2.23931 0.558105,0.75103 1.646754,0.75103 0.833712,0 1.364257,-0.43408 0.537434,-0.44098 0.75103,-1.30225 h 1.019747 q -0.303168,1.20578 -1.1231,1.81212 -0.813042,0.60634 -2.142848,0.60634 -1.605413,0 -2.583819,-1.0542 -0.971516,-1.06109 -0.971516,-2.8112 0,-1.73633 0.957735,-2.79741 0.957736,-1.06109 2.514918,-1.06109 1.660535,0 2.549369,1.02663 0.888834,1.01975 0.923285,2.96967 z m -1.495171,-0.73035 q -0.04134,-1.28158 -0.544324,-1.92926 -0.496094,-0.65456 -1.433159,-0.65456 -0.875053,0 -1.378037,0.65456 -0.502984,0.65457 -0.613227,1.92926 z m 8.943463,-3.07992 v 1.83279 h -0.73036 q -0.03445,-0.54432 -0.303168,-0.81304 -0.268717,-0.26872 -0.785481,-0.26872 -0.937066,0 -1.440049,0.64768 -0.496093,0.64768 -0.496093,1.86035 v 3.34863 h 1.467609 V 297 h -3.879174 v -0.73036 h 1.14377 v -5.87044 h -1.212672 v -0.72347 h 2.480467 v 1.30225 q 0.37207,-0.76481 0.957735,-1.12999 0.585666,-0.37207 1.426269,-0.37207 0.310058,0 0.647677,0.0482 0.34451,0.0482 0.72347,0.1378 z"
           id="text4-4"
           aria-label="DataLoader" />
      </g>
      <g
         id="g16"
         transform="translate(49.551609,9.948815)">
        <path
           id="rect15"
           style="fill:#fff6d5;stroke:#000000;stroke-width:0.999998;stroke-miterlimit:12"
           d="m -207.84903,253.72284 h 99.00001 v 23 h -99.00001 z" />
        <path
           style="font-size:14.1111px;font-family:'DejaVu Serif';-inkscape-font-specification:'DejaVu Serif, Normal';text-align:center;text-anchor:middle;opacity:0.75;fill:#3e3e3e;stroke-width:0.5;stroke-miterlimit:12;stroke-dasharray:1.5, 1.5"
           d="m -180.13235,270.48349 v -0.73036 h 1.30913 v -8.81944 h -1.38493 v -0.73725 h 2.99724 l 3.61045,7.32427 3.61046,-7.32427 h 2.8112 v 0.73725 h -1.37115 v 8.81944 h 1.31602 v 0.73036 h -4.02386 v -0.73036 h 1.30913 v -7.95127 l -3.52777,7.17268 h -0.97152 l -3.52778,-7.17268 v 7.95127 h 1.30914 v 0.73036 z m 17.91448,-0.48231 q 1.01975,0 1.53651,-0.80615 0.52365,-0.80616 0.52365,-2.37712 0,-1.57096 -0.52365,-2.37022 -0.51676,-0.80615 -1.53651,-0.80615 -1.01975,0 -1.5434,0.80615 -0.51677,0.79926 -0.51677,2.37022 0,1.57096 0.52366,2.37712 0.52365,0.80615 1.53651,0.80615 z m 0,0.68213 q -1.59852,0 -2.57004,-1.0542 -0.97152,-1.06109 -0.97152,-2.8112 0,-1.75011 0.96463,-2.8043 0.97152,-1.0542 2.57693,-1.0542 1.60541,0 2.57004,1.0542 0.97151,1.05419 0.97151,2.8043 0,1.75011 -0.97151,2.8112 -0.96463,1.0542 -2.57004,1.0542 z m 11.65819,-0.93018 h 1.21267 v 0.73036 h -2.48046 v -1.14377 q -0.37207,0.68902 -0.95085,1.01975 -0.57188,0.32384 -1.41938,0.32384 -1.35047,0 -2.21175,-1.06798 -0.85438,-1.07487 -0.85438,-2.79742 0,-1.72255 0.85438,-2.79052 0.85439,-1.06798 2.21175,-1.06798 0.8475,0 1.41938,0.33073 0.57878,0.32383 0.95085,1.01285 v -3.81027 h -1.19889 v -0.73036 h 2.46668 z m -1.26779,-2.57004 v -0.72347 q 0,-1.31602 -0.50988,-2.01193 -0.50298,-0.69591 -1.46761,-0.69591 -0.9784,0 -1.48139,0.7717 -0.49609,0.7717 -0.49609,2.29443 0,1.51584 0.49609,2.29443 0.50299,0.77859 1.48139,0.77859 0.96463,0 1.46761,-0.68901 0.50988,-0.69591 0.50988,-2.01883 z m 10.54198,-0.22738 h -5.46391 v 0.0551 q 0,1.48139 0.5581,2.23931 0.55811,0.75103 1.64676,0.75103 0.83371,0 1.36425,-0.43408 0.53744,-0.44098 0.75103,-1.30225 h 1.01975 q -0.30317,1.20578 -1.1231,1.81212 -0.81304,0.60634 -2.14285,0.60634 -1.60541,0 -2.58382,-1.0542 -0.97151,-1.06109 -0.97151,-2.8112 0,-1.73633 0.95773,-2.79741 0.95774,-1.06109 2.51492,-1.06109 1.66054,0 2.54937,1.02663 0.88883,1.01975 0.92328,2.96967 z m -1.49517,-0.73035 q -0.0413,-1.28158 -0.54432,-1.92926 -0.49609,-0.65456 -1.43316,-0.65456 -0.87505,0 -1.37804,0.65456 -0.50298,0.65457 -0.61322,1.92926 z m 5.09185,3.52777 h 1.19889 v 0.73036 h -3.68625 v -0.73036 h 1.21956 v -9.26041 h -1.21956 v -0.73036 h 2.48736 z"
           id="text15"
           aria-label="Model" />
      </g>
      <g
         id="g19"
         transform="translate(-52.752925,-53.690803)">
        <path
           id="rect16"
           style="fill:#fff6d5;stroke:#000000;stroke-width:0.999998;stroke-miterlimit:12"
           d="m 102.39407,317.36246 h 99.00001 v 23 h -99.00001 z" />
        <path
           style="font-size:14.1111px;font-family:'DejaVu Serif';-inkscape-font-specification:'DejaVu Serif, Normal';text-align:center;text-anchor:middle;opacity:0.75;fill:#3e3e3e;stroke-width:0.5;stroke-miterlimit:12;stroke-dasharray:1.5, 1.5"
           d="m 121.68062,332.09394 q 1.68809,0 2.54936,-1.15755 0.86128,-1.16444 0.86128,-3.4382 0,-2.28065 -0.86128,-3.4382 -0.86127,-1.16444 -2.54936,-1.16444 -1.69499,0 -2.55626,1.16444 -0.86128,1.15755 -0.86128,3.4382 0,2.27376 0.86128,3.4382 0.86127,1.15755 2.55626,1.15755 z m 0,0.73725 q -1.04731,0 -1.92926,-0.34451 -0.87505,-0.34451 -1.5434,-1.01285 -0.7717,-0.7717 -1.15066,-1.75011 -0.37207,-0.97841 -0.37207,-2.22553 0,-1.24712 0.37207,-2.22553 0.37896,-0.9853 1.15066,-1.757 0.67524,-0.67524 1.5434,-1.01285 0.86817,-0.34451 1.92926,-0.34451 2.23931,0 3.61734,1.46761 1.37804,1.46761 1.37804,3.87228 0,1.23334 -0.37896,2.22553 -0.37896,0.9853 -1.15066,1.75011 -0.67524,0.67524 -1.5434,1.01974 -0.86817,0.33762 -1.92236,0.33762 z m 8.67474,-4.22368 v 0.72347 q 0,1.32291 0.50298,2.01882 0.50988,0.68902 1.4745,0.68902 0.97152,0 1.46761,-0.77859 0.50299,-0.77859 0.50299,-2.29443 0,-1.52273 -0.50299,-2.29443 -0.49609,-0.7717 -1.46761,-0.7717 -0.96462,0 -1.4745,0.69591 -0.50298,0.6959 -0.50298,2.01193 z m -1.26779,-2.56315 H 127.868 v -0.73725 h 2.48736 v 1.14377 q 0.37207,-0.68902 0.94396,-1.01286 0.57877,-0.33072 1.42626,-0.33072 1.35048,0 2.20486,1.06797 0.85439,1.06798 0.85439,2.79053 0,1.72255 -0.85439,2.79741 -0.85438,1.06798 -2.20486,1.06798 -0.84749,0 -1.42626,-0.32384 -0.57189,-0.33072 -0.94396,-1.01974 v 3.34174 h 1.19889 v 0.73725 H 127.868 v -0.73725 h 1.21957 z m 8.92968,0 h -1.11622 v -0.73725 h 1.11622 v -2.27376 h 1.27468 v 2.27376 h 2.384 v 0.73725 h -2.384 v 4.65088 q 0,0.93017 0.17914,1.192 0.17915,0.26183 0.66146,0.26183 0.4961,0 0.72347,-0.28939 0.22738,-0.29628 0.24116,-0.95085 h 0.95773 q -0.0551,0.99908 -0.54432,1.46072 -0.4892,0.46164 -1.48828,0.46164 -1.09554,0 -1.55029,-0.48231 -0.45475,-0.4892 -0.45475,-1.65364 z m 5.51903,-3.01101 q 0,-0.31695 0.22738,-0.55122 0.23427,-0.23426 0.55811,-0.23426 0.31694,0 0.54432,0.23426 0.23427,0.23427 0.23427,0.55122 0,0.32384 -0.22738,0.55121 -0.22738,0.22738 -0.55121,0.22738 -0.32384,0 -0.55811,-0.22738 -0.22738,-0.22737 -0.22738,-0.55121 z m 1.6192,8.86767 h 1.19889 v 0.73036 h -3.67936 v -0.73036 h 1.21267 v -5.85666 h -1.21267 v -0.73725 h 2.48047 z m 8.83322,-5.16764 q 0.36518,-0.80615 0.93017,-1.21267 0.57189,-0.41341 1.32981,-0.41341 1.15066,0 1.71565,0.71657 0.565,0.70969 0.565,2.14974 v 3.92741 h 1.14377 v 0.73036 h -3.514 v -0.73036 h 1.10243 v -3.78271 q 0,-1.1231 -0.33072,-1.59853 -0.33073,-0.47542 -1.09554,-0.47542 -0.8475,0 -1.29536,0.64079 -0.44097,0.64079 -0.44097,1.86724 v 3.34863 h 1.10243 v 0.73036 h -3.47266 v -0.73036 h 1.10243 v -3.83094 q 0,-1.09554 -0.33072,-1.55719 -0.33073,-0.46853 -1.09554,-0.46853 -0.8475,0 -1.29536,0.64079 -0.44097,0.64079 -0.44097,1.86724 v 3.34863 h 1.10243 v 0.73036 h -3.514 v -0.73036 h 1.14378 v -5.87044 h -1.21268 v -0.72347 h 2.48047 v 1.30225 q 0.3514,-0.73036 0.89572,-1.11621 0.54433,-0.38585 1.23335,-0.38585 0.85438,0 1.42627,0.42719 0.57188,0.4203 0.76481,1.19889 z m 7.4414,-3.70003 q 0,-0.31695 0.22737,-0.55122 0.23427,-0.23426 0.55811,-0.23426 0.31694,0 0.54432,0.23426 0.23427,0.23427 0.23427,0.55122 0,0.32384 -0.22738,0.55121 -0.22738,0.22738 -0.55121,0.22738 -0.32384,0 -0.55811,-0.22738 -0.22737,-0.22737 -0.22737,-0.55121 z m 1.61919,8.86767 h 1.19889 v 0.73036 h -3.67936 v -0.73036 h 1.21267 v -5.85666 h -1.21267 v -0.73725 h 2.48047 z m 2.08773,0.73036 v -0.59256 l 4.58886,-5.99446 h -3.63113 v 1.26779 h -0.73036 v -2.00504 h 5.99446 v 0.59256 l -4.58886,6.00135 h 3.98253 v -1.32981 h 0.73725 v 2.06017 z m 14.51762,-3.52778 h -5.46392 v 0.0551 q 0,1.48139 0.5581,2.23931 0.55811,0.75104 1.64676,0.75104 0.83371,0 1.36426,-0.43409 0.53743,-0.44097 0.75103,-1.30224 h 1.01974 q -0.30317,1.20578 -1.1231,1.81212 -0.81304,0.60633 -2.14284,0.60633 -1.60542,0 -2.58382,-1.05419 -0.97152,-1.06109 -0.97152,-2.8112 0,-1.73633 0.95774,-2.79742 0.95773,-1.06108 2.51491,-1.06108 1.66054,0 2.54937,1.02663 0.88884,1.01975 0.92329,2.96967 z m -1.49517,-0.73036 q -0.0413,-1.28157 -0.54433,-1.92925 -0.49609,-0.65457 -1.43316,-0.65457 -0.87505,0 -1.37803,0.65457 -0.50299,0.65457 -0.61323,1.92925 z m 8.94346,-3.07991 v 1.83279 h -0.73036 q -0.0344,-0.54432 -0.30317,-0.81304 -0.26872,-0.26872 -0.78548,-0.26872 -0.93707,0 -1.44005,0.64768 -0.49609,0.64768 -0.49609,1.86035 v 3.34863 h 1.46761 v 0.73036 h -3.87918 v -0.73036 h 1.14377 v -5.87044 h -1.21267 v -0.72347 h 2.48047 v 1.30225 q 0.37207,-0.76481 0.95773,-1.12999 0.58567,-0.37207 1.42627,-0.37207 0.31006,0 0.64768,0.0482 0.34451,0.0482 0.72347,0.1378 z"
           id="text16"
           aria-label="Optimizer" />
      </g>
      <g
         id="g18"
         transform="translate(-12.563015,-70.158546)">
        <path
           id="rect16-1"
           style="fill:#fff6d5;stroke:#000000;stroke-width:0.999998;stroke-miterlimit:12"
           d="m -41.765121,333.8302 h 99.000007 v 23 h -99.000007 z" />
        <path
           style="font-size:14.1111px;font-family:'DejaVu Serif';-inkscape-font-specification:'DejaVu Serif, Normal';text-align:center;text-anchor:middle;opacity:0.75;fill:#3e3e3e;stroke-width:0.5;stroke-miterlimit:12;stroke-dasharray:1.5, 1.5"
           d="m -14.975172,347.7452 q -0.454753,1.44005 -1.529621,2.18419 -1.067979,0.73725 -2.707843,0.73725 -1.005968,0 -1.867241,-0.34451 -0.861273,-0.34451 -1.529621,-1.01285 -0.771701,-0.7717 -1.150661,-1.75011 -0.37207,-0.9853 -0.37207,-2.22553 0,-2.39779 1.384927,-3.8654 1.384928,-1.47449 3.651799,-1.47449 0.840602,0 1.791448,0.22048 0.950846,0.22049 2.046385,0.66835 v 2.37022 h -0.778591 q -0.254937,-1.29535 -1.026638,-1.90858 -0.76481,-0.61322 -2.149737,-0.61322 -1.646755,0 -2.494248,1.17133 -0.847492,1.16444 -0.847492,3.43131 0,2.25998 0.847492,3.43131 0.847493,1.16444 2.494248,1.16444 1.150661,0 1.894801,-0.54432 0.74414,-0.55122 1.074869,-1.63987 z m 7.5929842,-4.61642 v 1.83279 h -0.7303597 q -0.034451,-0.54433 -0.3031682,-0.81304 -0.2687172,-0.26872 -0.7854811,-0.26872 -0.9370652,0 -1.4400492,0.64768 -0.496093,0.64767 -0.496093,1.86035 v 3.34863 h 1.4676095 v 0.73036 h -3.8791745 v -0.73036 h 1.143771 v -5.87044 h -1.212673 v -0.72347 h 2.480467 v 1.30225 q 0.37207,-0.76482 0.957736,-1.13 0.5856656,-0.37207 1.4262682,-0.37207 0.3100584,0 0.6476775,0.0482 0.3445093,0.0482 0.7234695,0.1378 z m 1.3711462,-2.25998 q 0,-0.31695 0.2273761,-0.55122 0.2342663,-0.23426 0.5581051,-0.23426 0.3169485,0 0.5443246,0.23426 0.2342663,0.23427 0.2342663,0.55122 0,0.32384 -0.2273761,0.55121 -0.2273761,0.22738 -0.5512148,0.22738 -0.3238388,0 -0.5581051,-0.22738 -0.2273761,-0.22737 -0.2273761,-0.55121 z m 1.6191936,8.86767 h 1.1988923 v 0.73036 h -3.6793591 v -0.73036 h 1.2126727 v -5.85666 h -1.2126727 v -0.73725 h 2.4804668 z m 3.0454635,-5.85666 h -1.1162101 v -0.73725 h 1.1162101 v -2.27376 h 1.2746843 v 2.27376 H 2.312304 v 0.73725 h -2.3840042 v 4.65088 q 0,0.93017 0.17914483,1.192 0.17914482,0.26182 0.66145782,0.26182 0.49609335,0 0.72346945,-0.28938 0.2273762,-0.29628 0.2411565,-0.95085 h 0.9577358 q -0.055121,0.99908 -0.5443246,1.46072 -0.4892032,0.46164 -1.48828012,0.46164 -1.09553952,0 -1.55029177,-0.48231 -0.45475221,-0.4892 -0.45475221,-1.65364 z m 11.7959965,3.05924 H 4.9856951 v 0.0551 q 0,1.48139 0.5581051,2.23931 0.558105,0.75103 1.6467544,0.75103 0.8337124,0 1.3642567,-0.43408 0.5374345,-0.44097 0.7510302,-1.30224 h 1.0197475 q -0.303168,1.20578 -1.1231002,1.81212 -0.8130419,0.60633 -2.1428478,0.60633 -1.6054132,0 -2.5838196,-1.0542 -0.9715162,-1.06108 -0.9715162,-2.81119 0,-1.73633 0.9577358,-2.79742 0.9577358,-1.06109 2.5149178,-1.06109 1.6605347,0 2.5493687,1.02664 0.8888335,1.01975 0.9232845,2.96967 z m -1.4951699,-0.73036 q -0.041341,-1.28157 -0.5443247,-1.92925 -0.4960934,-0.65457 -1.4331586,-0.65457 -0.8750536,0 -1.3780371,0.65457 -0.5029836,0.65457 -0.6132266,1.92925 z m 8.9434609,-3.07991 v 1.83279 h -0.73036 q -0.03445,-0.54433 -0.303168,-0.81304 -0.268718,-0.26872 -0.785482,-0.26872 -0.937065,0 -1.440048,0.64768 -0.496094,0.64767 -0.496094,1.86035 v 3.34863 h 1.46761 v 0.73036 h -3.879175 v -0.73036 h 1.143771 v -5.87044 h -1.212672 v -0.72347 h 2.480466 v 1.30225 q 0.37207,-0.76482 0.957736,-1.13 0.585666,-0.37207 1.426269,-0.37207 0.310058,0 0.647677,0.0482 0.344509,0.0482 0.72347,0.1378 z m 1.37115,-2.25998 q 0,-0.31695 0.227376,-0.55122 0.234266,-0.23426 0.558105,-0.23426 0.316948,0 0.544324,0.23426 0.234267,0.23427 0.234267,0.55122 0,0.32384 -0.227376,0.55121 -0.227377,0.22738 -0.551215,0.22738 -0.323839,0 -0.558105,-0.22738 -0.227376,-0.22737 -0.227376,-0.55121 z m 1.619193,8.86767 h 1.198892 v 0.73036 h -3.679359 v -0.73036 h 1.212673 v -5.85666 h -1.212673 v -0.73725 h 2.480467 z m 5.767083,0.24804 q 1.019748,0 1.536512,-0.80615 0.523654,-0.80615 0.523654,-2.37711 0,-1.57096 -0.523654,-2.37023 -0.516764,-0.80615 -1.536512,-0.80615 -1.019747,0 -1.543401,0.80615 -0.516764,0.79927 -0.516764,2.37023 0,1.57096 0.523654,2.37711 0.523654,0.80615 1.536511,0.80615 z m 0,0.68213 q -1.598523,0 -2.570039,-1.0542 -0.971516,-1.06108 -0.971516,-2.81119 0,-1.75011 0.964626,-2.80431 0.971516,-1.0542 2.576929,-1.0542 1.605413,0 2.570039,1.0542 0.971517,1.0542 0.971517,2.80431 0,1.75011 -0.971517,2.81119 -0.964626,1.0542 -2.570039,1.0542 z m 4.830023,-0.19981 v -0.73036 h 1.143771 v -5.85666 H 31.41645 v -0.73725 h 2.480467 v 1.30225 q 0.351399,-0.74414 0.909504,-1.12311 0.564996,-0.37896 1.309136,-0.37896 1.212672,0 1.784558,0.69591 0.571885,0.69591 0.571885,2.17041 v 3.92741 h 1.129991 v 0.73036 h -3.500215 v -0.73036 h 1.09554 v -3.52778 q 0,-1.34358 -0.330729,-1.83968 -0.330729,-0.50298 -1.164441,-0.50298 -0.881944,0 -1.343587,0.64768 -0.461642,0.64078 -0.461642,1.87413 v 3.34863 h 1.10243 v 0.73036 z"
           id="text16-1"
           aria-label="Criterion" />
      </g>
      <g
         id="g47"
         transform="translate(-9.999994,3.1458509)">
        <path
           id="rect16-3"
           style="fill:#fff6d5;stroke:#000000;stroke-width:0.999999;stroke-miterlimit:12"
           d="m -2.3435,333.63511 h 119 v 23 h -119 z" />
        <text
           xml:space="preserve"
           style="font-size:14.1111px;font-family:'DejaVu Serif';-inkscape-font-specification:'DejaVu Serif, Normal';text-align:center;text-anchor:middle;opacity:0.75;fill:#3e3e3e;stroke-width:0.499999;stroke-miterlimit:12;stroke-dasharray:1.5, 1.5;-inkscape-stroke:none;stop-color:#000000"
           x="57.442444"
           y="348.92816"
           id="text47"><tspan
             sodipodi:role="line"
             id="tspan47"
             style="stroke-width:0.5"
             x="57.442444"
             y="348.92816">Training loop</tspan></text>
      </g>
      <path
         style="opacity:1;fill:none;fill-opacity:1;stroke:#676767;stroke-width:1;stroke-miterlimit:12;stroke-dasharray:none;stroke-dashoffset:0;stroke-opacity:1"
         d="m -4.8281361,286.67165 c -9e-7,7.62258 -1.7e-6,15.24517 8.6642792,19.22314 8.6642809,3.97796 25.9921529,4.31129 34.6562599,8.32732 8.664107,4.01603 8.664104,11.71443 8.6641,19.413"
         id="path52"
         inkscape:path-effect="#path-effect52"
         inkscape:original-d="m -4.8281361,286.67165 c 0,7.62258 -2.6e-6,15.24517 -2.6e-6,22.86776 17.3285627,0.33334 34.6564347,0.66667 51.9846527,1.00001 -5e-6,7.69872 -8e-6,15.39712 -1.1e-5,23.09569" />
      <path
         style="opacity:1;fill:none;fill-opacity:1;stroke:#676767;stroke-width:1;stroke-miterlimit:12;stroke-dasharray:none;stroke-dashoffset:0;stroke-opacity:1"
         d="m 99.141148,287.17165 c 0,7.45592 0,14.91184 -8.66428,18.80647 -8.66428,3.89463 -25.992144,4.22796 -34.656251,7.5688 -8.664107,3.34083 -8.66411,9.6889 -8.664114,16.03711"
         id="path53"
         inkscape:path-effect="#path-effect53"
         inkscape:original-d="m 99.141148,287.17165 c 0,7.45592 0,14.91184 0,22.36776 -17.32856,0.33334 -34.656424,0.66667 -51.984634,1.00001 -5e-6,6.34833 -8e-6,12.6964 -1.1e-5,19.04461" />
      <path
         style="opacity:1;fill:none;fill-opacity:1;stroke:#676767;stroke-width:1;stroke-miterlimit:12;stroke-dasharray:none;stroke-dashoffset:0;stroke-opacity:1"
         d="m -108.79741,287.17165 c 0,7.45592 -1e-5,14.91184 25.992831,18.72313 25.992838,3.8113 77.9764403,3.97796 103.968761,7.99399 25.99232,4.01603 25.99232,11.88111 25.992319,19.74634"
         id="path54"
         inkscape:path-effect="#path-effect54"
         inkscape:original-d="m -108.79741,287.17165 c -1e-5,7.45592 -1e-5,14.91184 -1e-5,22.36776 51.985679,0.16667 103.9692813,0.33333 155.953923,0.5 -2e-6,7.86539 -2e-6,15.73047 -2e-6,23.5957" />
      <path
         style="fill:#676767;fill-opacity:1;stroke:#676767;stroke-width:1;stroke-miterlimit:12;stroke-dasharray:none;stroke-dashoffset:0;stroke-opacity:1"
         d="m 47.156528,335.33406 -2.30198,-3.70215 c 0,0 1.512,0.56324 2.30198,0.56324 0.78995,0 2.30195,-0.56324 2.30195,-0.56324 z"
         id="path61-59"
         sodipodi:nodetypes="ccscc" />
      <path
         style="opacity:1;fill:none;fill-opacity:1;stroke:#676767;stroke-width:1;stroke-miterlimit:12;stroke-dasharray:none;stroke-dashoffset:0;stroke-opacity:1"
         d="m 203.11044,287.17165 c 0,7.45592 0,14.91184 -25.99285,18.72314 -25.99286,3.81129 -77.976442,3.97795 -103.968761,7.75398 -25.992319,3.77603 -25.992311,11.16113 -25.992304,18.54638"
         id="path65"
         inkscape:original-d="m 203.11044,287.17165 c 0,7.45592 0,14.91184 0,22.36776 -51.98571,0.16667 -103.969292,0.33333 -155.953937,0.5 6e-6,7.38539 1.4e-5,14.77049 2.2e-5,22.15574"
         inkscape:path-effect="#path-effect65" />
    </g>
    <path
       style="opacity:1;fill:none;fill-opacity:1;stroke:#676767;stroke-width:1.12175;stroke-miterlimit:12;stroke-dasharray:none;stroke-dashoffset:0;stroke-opacity:1"
       d="m 21.386137,162.95033 c 9.251389,0 18.502781,0 27.754173,0"
       id="path66"
       inkscape:path-effect="#path-effect67"
       inkscape:original-d="m 21.386137,162.95033 c 9.251389,0 18.502781,0 27.754173,0"
       transform="matrix(0.809293,0,0,0.98198461,4.5784883,2.9356134)" />
    <path
       style="opacity:1;fill:none;fill-opacity:1;stroke:#676767;stroke-width:1.09532;stroke-miterlimit:12;stroke-dasharray:none;stroke-dashoffset:0;stroke-opacity:1"
       d="m -80.457805,162.94751 c 9.182357,0.001 18.364711,0.002 27.547067,0.003"
       id="path67"
       inkscape:path-effect="#path-effect68"
       inkscape:original-d="m -80.457805,162.94751 c 9.182357,0.001 18.364711,0.002 27.547067,0.003"
       transform="matrix(0.8335282,0,0,1,-13.393955,0)" />
    <path
       style="fill:#676767;fill-opacity:1;stroke:#676767;stroke-width:1;stroke-miterlimit:12;stroke-dasharray:none;stroke-dashoffset:0;stroke-opacity:1"
       d="m -54.357637,162.94899 -3.70215,2.30198 c 0,0 0.56324,-1.512 0.56324,-2.30198 0,-0.78995 -0.56324,-2.30195 -0.56324,-2.30195 z"
       id="path61-5-89"
       sodipodi:nodetypes="ccscc" />
    <text
       xml:space="preserve"
       style="font-size:14.1111px;font-family:'DejaVu Serif';-inkscape-font-specification:'DejaVu Serif, Normal';text-align:center;text-anchor:middle;opacity:0.75;fill:#3e3e3e;stroke-width:0.499999;stroke-miterlimit:12;stroke-dasharray:1.5, 1.5;-inkscape-stroke:none;stop-color:#000000"
       x="203.3757"
       y="159.39156"
       id="text69"><tspan
         sodipodi:role="line"
         id="tspan69"
         style="stroke-width:0.5"
         x="203.3757"
         y="159.39156">Validation</tspan><tspan
         sodipodi:role="line"
         style="stroke-width:0.5"
         x="203.3757"
         y="177.03043"
         id="tspan70">dataset</tspan></text>
    <text
       xml:space="preserve"
       style="font-size:14.1111px;font-family:'DejaVu Serif';-inkscape-font-specification:'DejaVu Serif, Normal';text-align:center;text-anchor:middle;opacity:0.75;fill:#3e3e3e;stroke-width:0.499999;stroke-miterlimit:12;stroke-dasharray:1.5, 1.5;-inkscape-stroke:none;stop-color:#000000"
       x="202.81415"
       y="103.84574"
       id="text71"><tspan
         sodipodi:role="line"
         id="tspan71"
         style="stroke-width:0.5"
         x="202.81415"
         y="103.84574">Test</tspan><tspan
         sodipodi:role="line"
         style="stroke-width:0.5"
         x="202.81415"
         y="121.48462"
         id="tspan72">dataset</tspan></text>
    <text
       xml:space="preserve"
       style="font-size:14.1111px;font-family:'DejaVu Serif';-inkscape-font-specification:'DejaVu Serif, Normal';text-align:center;text-anchor:middle;opacity:0.75;fill:#3e3e3e;stroke-width:0.499999;stroke-miterlimit:12;stroke-dasharray:1.5, 1.5;-inkscape-stroke:none;stop-color:#000000"
       x="90.670135"
       y="154.53194"
       id="text73"><tspan
         sodipodi:role="line"
         id="tspan73"
         style="stroke-width:0.5"
         x="90.670135"
         y="154.53194">Data</tspan><tspan
         sodipodi:role="line"
         style="stroke-width:0.5"
         x="90.670135"
         y="172.17081"
         id="tspan74">splitting</tspan></text>
  </g>
</svg>
